<?xml version="1.0" encoding="UTF-8"?>
<svg xmlns="http://www.w3.org/2000/svg" xmlns:xlink="http://www.w3.org/1999/xlink" width="2000" height="2000" viewBox="0 0 2000 2000">

<path fill-rule="nonzero" fill="rgb(10.594177%, 5.883789%, 7.446289%)" fill-opacity="1" d="M 1114.53125 1270.109375 C 1014.78125 1274.046875 918.675781 1257.851562 826.222656 1221.5625 C 825.226562 1221.164062 824.199219 1222.046875 824.429688 1223.074219 L 831.554688 1255.601562 C 838.167969 1285.902344 846.351562 1316.351562 856.128906 1346.941406 C 859.75 1358.257812 856.414062 1365.1875 846.125 1367.722656 C 828.078125 1372.199219 823.460938 1354.582031 821.121094 1342.09375 C 820.894531 1340.8125 820.152344 1340.328125 818.871094 1340.667969 L 802.136719 1345.117188 C 801.109375 1345.375 800.480469 1346.425781 800.710938 1347.484375 C 802.875 1357.035156 809.574219 1380.296875 805.042969 1388.507812 C 799.285156 1398.96875 779.441406 1399.339844 775.539062 1386.453125 C 772.914062 1377.789062 771.03125 1366.8125 769.921875 1353.527344 C 769.835938 1352.613281 769.039062 1351.957031 768.125 1352.074219 L 753.613281 1353.613281 C 752.445312 1353.726562 751.933594 1354.351562 752.015625 1355.523438 C 753.101562 1367.980469 759.03125 1399.253906 740.414062 1401.535156 C 714.359375 1404.785156 720.429688 1370.261719 720.488281 1355.09375 C 720.488281 1354.296875 719.859375 1353.640625 719.0625 1353.613281 L 703.46875 1353.011719 C 702.585938 1352.984375 702.128906 1353.382812 702.097656 1354.269531 C 701.84375 1363.617188 700.988281 1373.453125 699.589844 1383.746094 C 696.425781 1407.007812 667.261719 1402.53125 667.433594 1383.832031 C 667.519531 1375.078125 668.972656 1364.21875 671.824219 1351.273438 C 672.222656 1349.421875 671.054688 1347.597656 669.203125 1347.199219 L 659.25 1345.03125 C 657.285156 1344.601562 656.117188 1345.375 655.71875 1347.339844 C 653.863281 1356.378906 651.582031 1366.296875 648.847656 1377.160156 C 647.847656 1381.066406 646.253906 1383.800781 644.027344 1385.371094 C 629.117188 1388.476562 620.652344 1385.339844 618.628906 1375.992188 C 617.800781 1372.113281 618.828125 1365.101562 621.761719 1354.921875 C 630.457031 1324.621094 636.1875 1292.691406 638.894531 1259.164062 C 639.039062 1257.480469 638.296875 1256.914062 636.703125 1257.511719 C 634.960938 1258.167969 633.222656 1259.707031 631.484375 1262.15625 C 560.46875 1362.191406 548.695312 1493.273438 588.949219 1605.996094 C 650.84375 1779.242188 823.203125 1884.492188 1003.429688 1885.40625 C 1172.691406 1886.289062 1336.320312 1787.90625 1403.261719 1629.972656 C 1470.199219 1483.382812 1434.710938 1314.015625 1316.851562 1203.746094 C 1316.140625 1203.058594 1315 1203.058594 1314.289062 1203.714844 C 1262.339844 1249.757812 1181.238281 1264.808594 1114.53125 1270.109375 M 836.257812 1096.097656 L 825.570312 1093.160156 C 824.515625 1092.847656 823.6875 1093.1875 823.089844 1094.128906 C 813.796875 1109.324219 819.324219 1116.308594 832.039062 1125.347656 C 849.402344 1137.890625 866.992188 1148.152344 884.78125 1156.164062 C 923.296875 1173.496094 964.832031 1185.613281 1009.390625 1192.539062 C 1009.878906 1192.625 1010.070312 1192.882812 1010.019531 1193.367188 L 1009.878906 1194.277344 C 1009.820312 1194.679688 1009.480469 1194.964844 1009.078125 1194.90625 C 949.296875 1188.546875 891.480469 1174.636719 835.660156 1153.113281 L 817.160156 1143.648438 C 816.417969 1143.277344 815.5625 1143.820312 815.589844 1144.617188 C 815.902344 1156.304688 817.160156 1168.082031 819.324219 1179.9375 C 820.378906 1185.671875 823.628906 1189.519531 829.132812 1191.484375 C 832.238281 1192.597656 835.003906 1193.308594 837.429688 1193.59375 C 934.128906 1233.449219 1044.089844 1246.847656 1146.660156 1236.214844 C 1194.640625 1231.226562 1275.601562 1209.53125 1306.25 1168.421875 C 1332.421875 1133.300781 1309.808594 1059.835938 1278.789062 1030.269531 C 1277.628906 1029.132812 1275.738281 1029.1875 1274.601562 1030.386719 C 1262.660156 1043.042969 1248.550781 1051.796875 1234.691406 1063.484375 C 1218.960938 1076.738281 1194.871094 1084.066406 1175.25 1089.027344 C 1066.488281 1116.539062 946.246094 1115.199219 836.257812 1096.097656 M 670.625 1243.914062 L 663.613281 1311.164062 C 663.46875 1312.589844 664.382812 1313.929688 665.777344 1314.328125 C 712.476562 1327.8125 765.046875 1328.296875 810.402344 1310.621094 C 811.542969 1310.164062 812.226562 1308.96875 812 1307.742188 C 811.316406 1303.75 810.429688 1299.675781 809.375 1295.542969 C 799.085938 1255.574219 791.617188 1215.117188 787.027344 1174.179688 C 783.375 1141.425781 782.976562 1099.6875 800.625 1070.410156 C 801.023438 1069.726562 800.738281 1068.871094 799.996094 1068.585938 C 779.898438 1060.945312 761.054688 1051.453125 743.492188 1040.132812 L 731.492188 1030.128906 C 730.09375 1028.960938 728.042969 1028.960938 726.644531 1030.128906 C 688.5 1061.6875 674.675781 1135.609375 672.851562 1182.132812 C 672.050781 1202.402344 671.308594 1223.015625 670.625 1243.914062 M 1271.78125 966.78125 C 1282.808594 948.25 1291.078125 927.640625 1296.609375 904.921875 C 1309.730469 851.238281 1306.359375 798.699219 1286.488281 747.359375 C 1278.648438 727.089844 1269.5 709.578125 1259.070312 694.839844 C 1250.261719 680.789062 1240.988281 669.410156 1231.269531 660.75 C 1230.101562 659.691406 1228.589844 659.121094 1227.019531 659.121094 C 1077.578125 658.121094 927.855469 657.671875 777.847656 657.71875 C 774.710938 657.71875 772.371094 658.578125 770.863281 660.261719 C 686.5625 753.96875 674.617188 890.070312 745.402344 994.640625 C 759.601562 1015.617188 772.972656 1024.3125 796.890625 1035.117188 C 804.527344 1038.566406 816.558594 1043.15625 833.007812 1048.945312 C 839.480469 1051.222656 838.539062 1059.007812 840.394531 1064.167969 C 840.734375 1065.078125 841.503906 1065.734375 842.445312 1065.933594 C 846.921875 1066.875 851.425781 1067.675781 855.960938 1068.328125 C 923.324219 1078.308594 991.03125 1081.1875 1059.050781 1076.96875 C 1100.839844 1074.375 1141.929688 1067.53125 1182.269531 1056.5 C 1194.128906 1053.277344 1203.160156 1049.285156 1209.378906 1044.523438 C 1234.519531 1025.308594 1255.328125 999.390625 1271.78125 966.78125 M 721.3125 641.441406 C 733.574219 634.03125 748.539062 627.140625 763.25 627.160156 C 931.933594 627.480469 1100.589844 627.679688 1269.269531 627.710938 C 1272.378906 627.710938 1274.378906 629.269531 1275.261719 632.378906 C 1277.390625 639.769531 1275.628906 645.5 1269.980469 649.539062 C 1268.160156 650.859375 1268.21875 653.589844 1270.128906 654.820312 C 1279.910156 661.058594 1303.589844 659.058594 1314.890625 657.671875 C 1330.421875 655.761719 1352.398438 635.199219 1340.140625 617.328125 C 1334.46875 609.03125 1326.550781 604.898438 1316.308594 604.871094 C 1149.078125 604.441406 981.765625 610.480469 814.566406 613.28125 C 777.019531 613.910156 739.472656 613.371094 701.957031 611.660156 C 691.324219 611.171875 683.339844 611.828125 678.011719 613.621094 C 667.261719 617.238281 659.878906 627.421875 667.121094 636.96875 C 679.378906 653.078125 696.253906 659.320312 717.777344 655.640625 C 718.632812 655.5 719.089844 654.988281 719.121094 654.109375 L 719.601562 644.300781 C 719.660156 643.039062 720.230469 642.101562 721.3125 641.441406 M 785.117188 551.328125 C 783.460938 551.621094 782.578125 552.609375 782.492188 554.300781 L 781.039062 582.058594 C 780.980469 583.121094 781.496094 583.628906 782.550781 583.601562 L 1231.839844 574.421875 C 1233.179688 574.390625 1233.808594 573.738281 1233.78125 572.398438 L 1232.890625 532.261719 C 1232.871094 529.839844 1231.609375 528.640625 1229.191406 528.609375 C 1139.019531 528.121094 1048.789062 530.210938 958.53125 534.820312 C 901.085938 537.761719 841.847656 541.71875 785.117188 551.328125 M 898.550781 341.429688 C 890.851562 341.109375 872.976562 337.71875 867.5625 344.308594 C 825.398438 395.558594 798.257812 453.859375 786.140625 519.179688 C 785.941406 520.308594 786.398438 520.828125 787.539062 520.679688 L 810.175781 518.121094 C 834.40625 514.78125 855.359375 512.421875 873.007812 511.019531 C 990.433594 501.75 1108.710938 497.53125 1227.878906 498.421875 C 1228.929688 498.449219 1229.730469 497.511719 1229.558594 496.449219 C 1205.46875 347.359375 1087.640625 219.320312 933.617188 206.871094 C 930.453125 206.609375 928.226562 207.578125 926.886719 209.769531 C 918.191406 224.03125 906.5625 234.660156 891.964844 241.640625 C 890.511719 242.359375 889.828125 244.070312 890.398438 245.578125 C 897.753906 264.738281 901.6875 295.179688 890.054688 313.691406 C 889.140625 315.140625 889.882812 317.050781 891.507812 317.53125 C 921.757812 326.710938 952.660156 331.988281 984.21875 333.390625 C 984.789062 333.410156 985.074219 333.730469 985.101562 334.300781 L 985.128906 335.039062 C 985.128906 335.300781 985.015625 335.410156 984.789062 335.441406 L 898.550781 341.429688 M 909.011719 167.640625 C 909.011719 138.308594 885.207031 114.5 855.875 114.5 C 826.539062 114.5 802.734375 138.308594 802.734375 167.640625 C 802.734375 196.96875 826.539062 220.78125 855.875 220.78125 C 885.207031 220.78125 909.011719 196.96875 909.011719 167.640625 M 1497.710938 1289.097656 C 1496.429688 1292.433594 1497.058594 1292.832031 1499.558594 1290.265625 C 1527.019531 1262.300781 1555.011719 1235.300781 1583.550781 1209.304688 C 1601.339844 1193.109375 1620.980469 1214.605469 1605.210938 1230.113281 C 1582.660156 1252.265625 1560.371094 1273.675781 1538.28125 1294.34375 C 1535 1297.394531 1535.449219 1298.164062 1539.640625 1296.59375 C 1571.089844 1284.878906 1603.558594 1273.191406 1637.089844 1261.53125 C 1643.839844 1259.191406 1649.179688 1256.941406 1655.898438 1259.734375 C 1668.46875 1264.953125 1667.789062 1282.113281 1654.621094 1287.1875 C 1620.921875 1300.1875 1587.25 1312.503906 1553.640625 1324.105469 C 1549.371094 1325.589844 1549.480469 1326.527344 1553.980469 1326.929688 C 1582.519531 1329.410156 1612.089844 1331.917969 1642.699219 1334.425781 C 1664.941406 1336.222656 1661.570312 1367.839844 1636.289062 1365.613281 C 1588.078125 1361.367188 1540.410156 1357.0625 1493.351562 1352.671875 C 1486.898438 1352.074219 1486.558594 1353.242188 1492.289062 1356.234375 C 1520.121094 1370.71875 1548.878906 1386.539062 1578.621094 1403.671875 C 1595.039062 1413.136719 1579.898438 1439.195312 1562.191406 1429.359375 C 1526.160156 1409.316406 1490.179688 1389.476562 1454.289062 1369.859375 C 1453.089844 1369.207031 1452.691406 1369.546875 1453.089844 1370.832031 C 1475.898438 1445.867188 1471.109375 1530.734375 1446.21875 1604.371094 C 1389.320312 1772.628906 1238.601562 1892.132812 1062.160156 1912.601562 C 764.390625 1947.125 487.375 1708.171875 542.511719 1396.316406 C 543.792969 1388.960938 546.957031 1380.523438 548.496094 1372.457031 C 548.609375 1371.800781 548.039062 1371.257812 547.386719 1371.402344 C 546.699219 1371.574219 545.960938 1371.886719 545.191406 1372.3125 C 513.003906 1390.871094 480.535156 1408.976562 447.777344 1426.566406 C 438.3125 1431.640625 427.394531 1434.632812 421.007812 1424.570312 C 413.996094 1413.535156 422.0625 1406.722656 431.527344 1401.277344 C 457.785156 1386.195312 484.125 1371.742188 510.550781 1357.917969 C 513.289062 1356.492188 513.117188 1355.605469 510.066406 1355.265625 C 507.902344 1355.007812 505.105469 1355.007812 501.6875 1355.265625 C 455.589844 1358.484375 409.519531 1361.824219 363.421875 1365.273438 C 344.320312 1366.726562 339.1875 1336.136719 361.652344 1334.597656 C 390.53125 1332.601562 420.125 1330.519531 450.429688 1328.351562 C 454.335938 1328.070312 454.476562 1327.242188 450.800781 1325.84375 C 417.472656 1313.300781 383.007812 1300.957031 347.398438 1288.8125 C 325.648438 1281.371094 334.484375 1252.722656 359.828125 1261.160156 C 393.726562 1272.449219 428.21875 1284.367188 463.3125 1296.882812 C 463.628906 1296.996094 463.882812 1296.652344 463.742188 1296.367188 C 462.6875 1294.457031 461.347656 1292.71875 459.691406 1291.09375 C 438.855469 1270.824219 417.929688 1250.640625 396.890625 1230.597656 C 379.8125 1214.347656 402.820312 1193.507812 420.351562 1210.757812 C 448.175781 1238.152344 476.96875 1264.722656 503.996094 1292.945312 C 505.960938 1295 506.476562 1294.683594 505.535156 1291.976562 C 494.015625 1258.765625 481.988281 1225.496094 469.472656 1192.140625 C 461.972656 1172.183594 490.453125 1161.695312 496.8125 1178.769531 C 513.375 1223.214844 529.367188 1267.832031 544.847656 1312.675781 C 547.527344 1320.457031 552.203125 1326.8125 558.875 1331.71875 C 559.84375 1332.429688 560.554688 1332.203125 560.984375 1331.089844 C 579.058594 1284.167969 606.484375 1242.34375 639.4375 1204.371094 C 641.207031 1202.347656 642.230469 1197.671875 642.347656 1194.535156 C 644.113281 1134.125 659.765625 1038.253906 712.875 1002.332031 C 713.332031 1002.019531 713.445312 1001.421875 713.160156 1000.964844 C 658.367188 914.359375 654.660156 805.28125 698.5625 713.230469 C 702.527344 704.929688 707.316406 696.949219 712.988281 689.25 C 713.558594 688.480469 712.988281 687.429688 712.050781 687.460938 C 680.976562 688.628906 645.226562 671.089844 635.046875 640.558594 C 627.492188 617.898438 643.484375 594.230469 664.554688 585.941406 C 690.070312 575.878906 722.085938 581.71875 750.390625 582.828125 C 751.304688 582.890625 752.046875 582.148438 752.074219 581.230469 C 752.902344 481.03125 785.742188 393.28125 850.597656 317.988281 C 868.472656 297.210938 870.097656 278.988281 860.949219 253.53125 C 860.40625 252 858.980469 251 857.355469 250.96875 C 828.648438 250.570312 805.527344 239.140625 787.9375 216.640625 C 757.234375 177.300781 772.003906 120.398438 813.710938 95.371094 C 834.492188 82.878906 857.585938 80.75 882.957031 88.980469 C 920.472656 101.128906 940.230469 136.851562 941.054688 175.480469 C 941.085938 176.421875 941.539062 176.929688 942.480469 177.019531 C 953.058594 178.101562 964.203125 178.929688 974.324219 181.070312 C 1026.640625 192.039062 1072.929688 213.308594 1113.25 244.929688 C 1217.191406 326.371094 1266.25 440.75 1264.308594 572.878906 C 1264.289062 573.851562 1265.078125 574.648438 1266.019531 574.621094 C 1277.648438 574.421875 1289.398438 574.191406 1301.261719 573.941406 C 1314.601562 573.648438 1324.519531 574.449219 1331.050781 576.359375 C 1377.570312 589.871094 1390.289062 641.789062 1350.550781 672.808594 C 1334.238281 685.519531 1313.058594 689.449219 1293.191406 688.800781 C 1292.191406 688.769531 1291.628906 689.878906 1292.21875 690.679688 C 1294.878906 694.191406 1297.320312 697.949219 1299.578125 702 C 1343.820312 781.878906 1345.421875 877.121094 1309.671875 960.308594 C 1303.589844 974.421875 1296.75 987.019531 1289.089844 998.109375 C 1288.539062 998.878906 1288.660156 999.570312 1289.429688 1000.136719 C 1330.511719 1030.984375 1346.53125 1080.730469 1347.980469 1130.820312 C 1348.46875 1148.382812 1344.449219 1164.230469 1335.929688 1178.371094 C 1335.46875 1179.140625 1335.558594 1179.796875 1336.210938 1180.394531 C 1382.421875 1223.074219 1417.261719 1273.644531 1440.691406 1332.117188 C 1441.351562 1333.800781 1443.519531 1334.253906 1444.800781 1333 C 1448.988281 1328.980469 1451.980469 1324.589844 1453.71875 1319.828125 C 1470.539062 1274.074219 1487.699219 1228.433594 1505.179688 1182.902344 C 1507.660156 1176.375 1511.28125 1172.585938 1515.980469 1171.472656 C 1527.039062 1168.851562 1539.789062 1176.859375 1535.25 1189.089844 C 1522.511719 1223.328125 1510 1256.683594 1497.710938 1289.097656 "/>
<path fill-rule="nonzero" fill="rgb(32.151794%, 49.804688%, 44.309998%)" fill-opacity="1" d="M 909.011719 167.640625 C 909.011719 196.96875 885.207031 220.78125 855.875 220.78125 C 826.539062 220.78125 802.734375 196.96875 802.734375 167.640625 C 802.734375 138.308594 826.539062 114.5 855.875 114.5 C 885.207031 114.5 909.011719 138.308594 909.011719 167.640625 "/>
<path fill-rule="nonzero" fill="rgb(80.46875%, 30.200195%, 22.75238%)" fill-opacity="1" d="M 810.175781 518.121094 C 809.375 518.320312 808.863281 518.351562 808.636719 518.261719 C 807.550781 517.808594 806.925781 516.640625 807.09375 515.46875 C 816.476562 453.691406 842.902344 392.859375 885.949219 346.898438 C 889.226562 343.390625 893.417969 341.570312 898.550781 341.429688 L 984.789062 335.441406 C 985.015625 335.410156 985.128906 335.300781 985.128906 335.039062 L 985.101562 334.300781 C 985.074219 333.730469 984.789062 333.410156 984.21875 333.390625 C 952.660156 331.988281 921.757812 326.710938 891.507812 317.53125 C 889.882812 317.050781 889.140625 315.140625 890.054688 313.691406 C 901.6875 295.179688 897.753906 264.738281 890.398438 245.578125 C 889.828125 244.070312 890.511719 242.359375 891.964844 241.640625 C 906.5625 234.660156 918.191406 224.03125 926.886719 209.769531 C 928.226562 207.578125 930.453125 206.609375 933.617188 206.871094 C 1087.640625 219.320312 1205.46875 347.359375 1229.558594 496.449219 C 1229.730469 497.511719 1228.929688 498.449219 1227.878906 498.421875 C 1108.710938 497.53125 990.433594 501.75 873.007812 511.019531 C 855.359375 512.421875 834.40625 514.78125 810.175781 518.121094 "/>
<path fill-rule="nonzero" fill="rgb(58.396912%, 17.651367%, 13.719177%)" fill-opacity="1" d="M 898.550781 341.429688 C 893.417969 341.570312 889.226562 343.390625 885.949219 346.898438 C 842.902344 392.859375 816.476562 453.691406 807.09375 515.46875 C 806.925781 516.640625 807.550781 517.808594 808.636719 518.261719 C 808.863281 518.351562 809.375 518.320312 810.175781 518.121094 L 787.539062 520.679688 C 786.398438 520.828125 785.941406 520.320312 786.140625 519.179688 C 798.257812 453.859375 825.398438 395.558594 867.5625 344.308594 C 872.976562 337.71875 890.851562 341.109375 898.550781 341.429688 "/>
<path fill-rule="nonzero" fill="rgb(32.151794%, 49.804688%, 44.309998%)" fill-opacity="1" d="M 785.117188 551.328125 C 841.847656 541.730469 901.085938 537.761719 958.53125 534.820312 C 1048.789062 530.210938 1139.019531 528.121094 1229.191406 528.609375 C 1231.609375 528.640625 1232.871094 529.839844 1232.890625 532.261719 L 1233.78125 572.398438 C 1233.808594 573.738281 1233.179688 574.390625 1231.839844 574.421875 L 782.550781 583.601562 C 781.496094 583.628906 780.980469 583.121094 781.039062 582.058594 L 782.492188 554.300781 C 782.578125 552.609375 783.460938 551.621094 785.117188 551.328125 "/>
<path fill-rule="nonzero" fill="rgb(80.46875%, 30.200195%, 22.75238%)" fill-opacity="1" d="M 719.601562 644.300781 L 719.121094 654.109375 C 719.089844 654.988281 718.632812 655.5 717.777344 655.640625 C 696.253906 659.320312 679.378906 653.078125 667.121094 636.96875 C 659.878906 627.421875 667.261719 617.238281 678.011719 613.621094 C 683.339844 611.820312 691.324219 611.171875 701.957031 611.660156 C 739.472656 613.371094 777.019531 613.910156 814.566406 613.28125 C 981.765625 610.480469 1149.078125 604.441406 1316.308594 604.871094 C 1326.539062 604.898438 1334.46875 609.03125 1340.140625 617.328125 C 1352.398438 635.199219 1330.421875 655.761719 1314.890625 657.671875 C 1303.589844 659.058594 1279.910156 661.058594 1270.128906 654.820312 C 1268.21875 653.589844 1268.160156 650.859375 1269.980469 649.539062 C 1275.628906 645.5 1277.390625 639.769531 1275.261719 632.378906 C 1274.378906 629.269531 1272.378906 627.710938 1269.269531 627.710938 C 1100.589844 627.679688 931.933594 627.480469 763.25 627.160156 C 748.539062 627.140625 733.574219 634.03125 721.3125 641.441406 C 720.230469 642.101562 719.660156 643.039062 719.601562 644.300781 "/>
<path fill-rule="nonzero" fill="rgb(66.601562%, 81.25%, 78.90625%)" fill-opacity="1" d="M 1259.070312 694.839844 C 1110.421875 696.890625 962.722656 699.71875 815.960938 703.28125 C 810.058594 703.421875 805.355469 706.019531 801.90625 711.058594 C 764.929688 765.320312 751.988281 829.601562 767.898438 893 C 787.28125 970.230469 849.574219 1027.902344 922.980469 1055.871094 C 935.925781 1060.804688 952.832031 1065.023438 973.667969 1068.472656 C 984.671875 1070.296875 996.503906 1071.324219 1009.128906 1071.578125 C 1044.96875 1072.261719 1075.210938 1068.527344 1111.929688 1057.667969 C 1152.730469 1045.609375 1192.589844 1025.308594 1231.5 996.828125 C 1231.558594 996.800781 1237.769531 991.558594 1250.140625 981.148438 C 1256.699219 975.648438 1263.910156 970.859375 1271.78125 966.78125 C 1255.328125 999.390625 1234.519531 1025.308594 1209.378906 1044.523438 C 1203.160156 1049.285156 1194.128906 1053.277344 1182.269531 1056.5 C 1141.929688 1067.53125 1100.839844 1074.375 1059.050781 1076.96875 C 991.03125 1081.1875 923.324219 1078.308594 855.960938 1068.328125 C 851.425781 1067.675781 846.921875 1066.875 842.445312 1065.933594 C 841.503906 1065.734375 840.734375 1065.078125 840.394531 1064.167969 C 838.539062 1059.007812 839.480469 1051.222656 833.007812 1048.945312 C 816.558594 1043.15625 804.53125 1038.566406 796.890625 1035.117188 C 772.972656 1024.3125 759.601562 1015.617188 745.402344 994.640625 C 674.617188 890.070312 686.5625 753.96875 770.863281 660.261719 C 772.371094 658.578125 774.710938 657.71875 777.847656 657.71875 C 927.855469 657.671875 1077.578125 658.121094 1227.019531 659.121094 C 1228.589844 659.121094 1230.101562 659.691406 1231.269531 660.75 C 1240.988281 669.410156 1250.261719 680.789062 1259.070312 694.839844 "/>
<path fill-rule="nonzero" fill="rgb(10.594177%, 5.883789%, 7.446289%)" fill-opacity="1" d="M 548.15625 696.070312 C 548.15625 707.929688 538.546875 717.53125 526.6875 717.53125 C 514.828125 717.53125 505.222656 707.929688 505.222656 696.070312 C 505.222656 684.210938 514.828125 674.601562 526.6875 674.601562 C 538.546875 674.601562 548.15625 684.210938 548.15625 696.070312 "/>
<path fill-rule="nonzero" fill="rgb(100%, 100%, 100%)" fill-opacity="1" d="M 1033.851562 988.851562 C 1033.851562 978.730469 1025.640625 970.519531 1015.519531 970.519531 C 1005.398438 970.519531 997.1875 978.730469 997.1875 988.851562 C 997.1875 998.96875 1005.398438 1007.179688 1015.519531 1007.179688 C 1025.640625 1007.179688 1033.851562 998.96875 1033.851562 988.851562 M 969.992188 980.070312 C 969.992188 970.058594 961.867188 961.941406 951.859375 961.941406 C 941.855469 961.941406 933.730469 970.058594 933.730469 980.070312 C 933.730469 990.070312 941.855469 998.199219 951.859375 998.199219 C 961.867188 998.199219 969.992188 990.070312 969.992188 980.070312 M 1092.75 972.910156 C 1092.75 962.789062 1084.539062 954.578125 1074.421875 954.578125 C 1064.300781 954.578125 1056.089844 962.789062 1056.089844 972.910156 C 1056.089844 983.03125 1064.300781 991.238281 1074.421875 991.238281 C 1084.539062 991.238281 1092.75 983.03125 1092.75 972.910156 M 912.71875 949.621094 C 912.71875 939.5 904.539062 931.320312 894.417969 931.320312 C 884.296875 931.320312 876.113281 939.5 876.113281 949.621094 C 876.113281 959.738281 884.296875 967.921875 894.417969 967.921875 C 904.539062 967.921875 912.71875 959.738281 912.71875 949.621094 M 1145.710938 932.429688 C 1145.710938 922.371094 1137.558594 914.210938 1127.5 914.210938 C 1117.441406 914.210938 1109.289062 922.371094 1109.289062 932.429688 C 1109.289062 942.488281 1117.441406 950.648438 1127.5 950.648438 C 1137.558594 950.648438 1145.710938 942.488281 1145.710938 932.429688 M 873.546875 904.460938 C 873.546875 894.140625 865.195312 885.789062 854.875 885.789062 C 844.554688 885.789062 836.203125 894.140625 836.203125 904.460938 C 836.203125 914.78125 844.554688 923.140625 854.875 923.140625 C 865.195312 923.140625 873.546875 914.78125 873.546875 904.460938 M 949.664062 908.308594 C 964.605469 922.191406 984.558594 932.289062 1005.339844 932.289062 C 1029.890625 932.261719 1050.808594 916.210938 1058.851562 893.261719 C 1072.988281 852.859375 1044.511719 807.621094 998.898438 812.300781 C 983.332031 813.921875 972.1875 820.53125 958.757812 829.371094 C 929.796875 848.441406 923.664062 884.109375 949.664062 908.308594 M 1171.550781 802.351562 C 1171.550781 777.539062 1151.449219 757.441406 1126.640625 757.441406 C 1101.839844 757.441406 1081.75 777.539062 1081.75 802.351562 C 1081.75 827.148438 1101.839844 847.25 1126.640625 847.25 C 1151.449219 847.25 1171.550781 827.148438 1171.550781 802.351562 M 880.941406 847.308594 C 905.449219 843.96875 922.554688 821.160156 919.175781 796.410156 C 915.796875 771.640625 893.164062 754.308594 868.664062 757.660156 C 844.15625 761.011719 827.050781 783.820312 830.429688 808.570312 C 833.808594 833.339844 856.445312 850.671875 880.941406 847.308594 M 1259.070312 694.839844 C 1269.5 709.578125 1278.648438 727.089844 1286.488281 747.359375 C 1306.359375 798.699219 1309.730469 851.238281 1296.609375 904.921875 C 1291.078125 927.640625 1282.808594 948.25 1271.78125 966.78125 C 1263.910156 970.859375 1256.699219 975.648438 1250.140625 981.148438 C 1237.769531 991.558594 1231.558594 996.800781 1231.5 996.828125 C 1192.589844 1025.3125 1152.730469 1045.609375 1111.929688 1057.667969 C 1075.210938 1068.53125 1044.96875 1072.261719 1009.128906 1071.578125 C 996.503906 1071.324219 984.671875 1070.296875 973.667969 1068.472656 C 952.828125 1065.023438 935.925781 1060.804688 922.980469 1055.871094 C 849.574219 1027.90625 787.28125 970.230469 767.898438 893 C 751.988281 829.601562 764.929688 765.320312 801.90625 711.058594 C 805.355469 706.019531 810.0625 703.421875 815.960938 703.28125 C 962.722656 699.71875 1110.421875 696.890625 1259.070312 694.839844 "/>
<path fill-rule="nonzero" fill="rgb(10.594177%, 5.883789%, 7.446289%)" fill-opacity="1" d="M 880.941406 847.308594 C 856.441406 850.671875 833.808594 833.339844 830.429688 808.570312 C 827.050781 783.820312 844.15625 761.011719 868.664062 757.660156 C 893.160156 754.308594 915.796875 771.640625 919.175781 796.410156 C 922.554688 821.160156 905.449219 843.96875 880.941406 847.308594 "/>
<path fill-rule="nonzero" fill="rgb(10.594177%, 5.883789%, 7.446289%)" fill-opacity="1" d="M 1171.550781 802.351562 C 1171.550781 827.148438 1151.441406 847.25 1126.640625 847.25 C 1101.839844 847.25 1081.738281 827.148438 1081.738281 802.351562 C 1081.738281 777.550781 1101.839844 757.441406 1126.640625 757.441406 C 1151.441406 757.441406 1171.550781 777.550781 1171.550781 802.351562 "/>
<path fill-rule="nonzero" fill="rgb(10.594177%, 5.883789%, 7.446289%)" fill-opacity="1" d="M 1498.390625 782.5 C 1498.390625 794.339844 1488.820312 803.910156 1476.980469 803.910156 C 1465.148438 803.910156 1455.570312 794.339844 1455.570312 782.5 C 1455.570312 770.679688 1465.148438 761.089844 1476.980469 761.089844 C 1488.820312 761.089844 1498.390625 770.679688 1498.390625 782.5 "/>
<path fill-rule="nonzero" fill="rgb(10.594177%, 5.883789%, 7.446289%)" fill-opacity="1" d="M 1016.289062 899.480469 C 1049.929688 882.96875 1027.039062 822.589844 986.355469 849.441406 C 978.03125 854.941406 966.3125 861.160156 964.574219 870.851562 C 963.636719 875.929688 964.917969 880.429688 968.394531 884.371094 C 978.203125 895.480469 1001.410156 906.769531 1016.289062 899.480469 M 1005.339844 932.289062 C 984.558594 932.289062 964.605469 922.191406 949.664062 908.308594 C 923.667969 884.109375 929.796875 848.441406 958.761719 829.371094 C 972.1875 820.53125 983.335938 813.921875 998.898438 812.300781 C 1044.511719 807.621094 1072.988281 852.859375 1058.851562 893.261719 C 1050.808594 916.210938 1029.890625 932.261719 1005.339844 932.289062 "/>
<path fill-rule="nonzero" fill="rgb(99.609375%, 48.242188%, 5.099487%)" fill-opacity="1" d="M 986.355469 849.441406 C 1027.039062 822.589844 1049.929688 882.96875 1016.289062 899.480469 C 1001.410156 906.769531 978.203125 895.480469 968.394531 884.371094 C 964.917969 880.429688 963.636719 875.929688 964.574219 870.851562 C 966.3125 861.160156 978.03125 854.941406 986.355469 849.441406 "/>
<path fill-rule="nonzero" fill="rgb(10.594177%, 5.883789%, 7.446289%)" fill-opacity="1" d="M 531.992188 892.011719 C 531.992188 903.578125 522.582031 912.988281 511.007812 912.988281 C 499.433594 912.988281 490.027344 903.578125 490.027344 892.011719 C 490.027344 880.429688 499.433594 871.019531 511.007812 871.019531 C 522.582031 871.019531 531.992188 880.429688 531.992188 892.011719 "/>
<path fill-rule="nonzero" fill="rgb(10.594177%, 5.883789%, 7.446289%)" fill-opacity="1" d="M 873.546875 904.460938 C 873.546875 914.78125 865.195312 923.140625 854.875 923.140625 C 844.554688 923.140625 836.203125 914.78125 836.203125 904.460938 C 836.203125 894.140625 844.554688 885.789062 854.875 885.789062 C 865.195312 885.789062 873.546875 894.140625 873.546875 904.460938 "/>
<path fill-rule="nonzero" fill="rgb(10.594177%, 5.883789%, 7.446289%)" fill-opacity="1" d="M 1145.710938 932.429688 C 1145.710938 942.488281 1137.558594 950.648438 1127.5 950.648438 C 1117.441406 950.648438 1109.28125 942.488281 1109.28125 932.429688 C 1109.28125 922.371094 1117.441406 914.210938 1127.5 914.210938 C 1137.558594 914.210938 1145.710938 922.371094 1145.710938 932.429688 "/>
<path fill-rule="nonzero" fill="rgb(10.594177%, 5.883789%, 7.446289%)" fill-opacity="1" d="M 912.71875 949.621094 C 912.71875 959.738281 904.535156 967.921875 894.417969 967.921875 C 884.296875 967.921875 876.113281 959.738281 876.113281 949.621094 C 876.113281 939.5 884.296875 931.320312 894.417969 931.320312 C 904.535156 931.320312 912.71875 939.5 912.71875 949.621094 "/>
<path fill-rule="nonzero" fill="rgb(10.594177%, 5.883789%, 7.446289%)" fill-opacity="1" d="M 1092.75 972.910156 C 1092.75 983.03125 1084.539062 991.238281 1074.421875 991.238281 C 1064.300781 991.238281 1056.089844 983.03125 1056.089844 972.910156 C 1056.089844 962.789062 1064.300781 954.578125 1074.421875 954.578125 C 1084.539062 954.578125 1092.75 962.789062 1092.75 972.910156 "/>
<path fill-rule="nonzero" fill="rgb(10.594177%, 5.883789%, 7.446289%)" fill-opacity="1" d="M 969.992188 980.070312 C 969.992188 990.070312 961.867188 998.199219 951.859375 998.199219 C 941.855469 998.199219 933.730469 990.070312 933.730469 980.070312 C 933.730469 970.058594 941.855469 961.941406 951.859375 961.941406 C 961.867188 961.941406 969.992188 970.058594 969.992188 980.070312 "/>
<path fill-rule="nonzero" fill="rgb(10.594177%, 5.883789%, 7.446289%)" fill-opacity="1" d="M 1514.191406 987.53125 C 1514.191406 999.03125 1504.859375 1008.347656 1493.378906 1008.347656 C 1481.890625 1008.347656 1472.570312 999.03125 1472.570312 987.53125 C 1472.570312 976.050781 1481.890625 966.730469 1493.378906 966.730469 C 1504.859375 966.730469 1514.191406 976.050781 1514.191406 987.53125 "/>
<path fill-rule="nonzero" fill="rgb(10.594177%, 5.883789%, 7.446289%)" fill-opacity="1" d="M 1033.851562 988.851562 C 1033.851562 998.96875 1025.640625 1007.179688 1015.519531 1007.179688 C 1005.398438 1007.179688 997.1875 998.96875 997.1875 988.851562 C 997.1875 978.730469 1005.398438 970.519531 1015.519531 970.519531 C 1025.640625 970.519531 1033.851562 978.730469 1033.851562 988.851562 "/>
<path fill-rule="nonzero" fill="rgb(58.396912%, 17.651367%, 13.719177%)" fill-opacity="1" d="M 743.492188 1040.136719 C 730.121094 1053.105469 719.691406 1067.929688 712.191406 1084.550781 C 692.664062 1127.96875 684.910156 1166.769531 676.242188 1217.457031 C 674.730469 1226.207031 672.878906 1235.046875 670.625 1243.910156 C 671.3125 1223.015625 672.050781 1202.402344 672.851562 1182.136719 C 674.675781 1135.609375 688.5 1061.6875 726.644531 1030.128906 C 728.042969 1028.960938 730.09375 1028.960938 731.492188 1030.128906 Z M 743.492188 1040.136719 "/>
<path fill-rule="nonzero" fill="rgb(80.46875%, 30.200195%, 22.75238%)" fill-opacity="1" d="M 837.429688 1193.59375 C 833.210938 1181.222656 832.609375 1167.738281 835.660156 1153.113281 C 891.480469 1174.636719 949.296875 1188.550781 1009.078125 1194.90625 C 1009.480469 1194.964844 1009.820312 1194.679688 1009.878906 1194.277344 L 1010.019531 1193.367188 C 1010.070312 1192.882812 1009.878906 1192.625 1009.390625 1192.539062 C 964.832031 1185.613281 923.296875 1173.496094 884.78125 1156.164062 C 866.992188 1148.152344 849.402344 1137.890625 832.039062 1125.347656 L 836.257812 1096.097656 C 946.246094 1115.195312 1066.488281 1116.539062 1175.25 1089.027344 C 1194.859375 1084.066406 1218.960938 1076.738281 1234.691406 1063.484375 C 1248.550781 1051.796875 1262.660156 1043.042969 1274.601562 1030.386719 C 1275.738281 1029.1875 1277.628906 1029.132812 1278.789062 1030.269531 C 1309.808594 1059.835938 1332.421875 1133.300781 1306.25 1168.421875 C 1275.601562 1209.53125 1194.640625 1231.226562 1146.660156 1236.214844 C 1044.089844 1246.847656 934.128906 1233.449219 837.429688 1193.59375 "/>
<path fill-rule="nonzero" fill="rgb(80.46875%, 30.200195%, 22.75238%)" fill-opacity="1" d="M 743.492188 1040.136719 C 761.054688 1051.453125 779.898438 1060.945312 799.996094 1068.585938 C 800.738281 1068.871094 801.023438 1069.726562 800.625 1070.410156 C 782.976562 1099.6875 783.375 1141.425781 787.027344 1174.179688 C 791.617188 1215.117188 799.085938 1255.570312 809.375 1295.539062 C 810.433594 1299.675781 811.316406 1303.75 812 1307.742188 C 812.226562 1308.96875 811.542969 1310.164062 810.402344 1310.621094 C 765.046875 1328.296875 712.476562 1327.8125 665.78125 1314.328125 C 664.382812 1313.929688 663.46875 1312.589844 663.613281 1311.164062 L 670.625 1243.910156 C 672.878906 1235.046875 674.730469 1226.207031 676.242188 1217.457031 C 684.910156 1166.769531 692.664062 1127.96875 712.191406 1084.550781 C 719.691406 1067.929688 730.121094 1053.105469 743.492188 1040.136719 "/>
<path fill-rule="nonzero" fill="rgb(58.396912%, 17.651367%, 13.719177%)" fill-opacity="1" d="M 836.257812 1096.097656 L 832.039062 1125.347656 C 819.324219 1116.308594 813.796875 1109.324219 823.089844 1094.128906 C 823.6875 1093.1875 824.515625 1092.847656 825.570312 1093.160156 Z M 836.257812 1096.097656 "/>
<path fill-rule="nonzero" fill="rgb(58.396912%, 17.651367%, 13.719177%)" fill-opacity="1" d="M 835.660156 1153.113281 C 832.609375 1167.738281 833.210938 1181.222656 837.429688 1193.59375 C 835.003906 1193.308594 832.238281 1192.597656 829.132812 1191.484375 C 823.628906 1189.519531 820.378906 1185.671875 819.324219 1179.9375 C 817.160156 1168.082031 815.90625 1156.304688 815.589844 1144.617188 C 815.5625 1143.820312 816.417969 1143.277344 817.160156 1143.648438 Z M 835.660156 1153.113281 "/>
<path fill-rule="nonzero" fill="rgb(100%, 100%, 100%)" fill-opacity="1" d="M 1062.441406 1618.28125 C 1062.441406 1589.289062 1038.929688 1565.769531 1009.929688 1565.769531 C 980.9375 1565.769531 957.421875 1589.289062 957.421875 1618.28125 C 957.421875 1647.277344 980.9375 1670.796875 1009.929688 1670.796875 C 1038.929688 1670.796875 1062.441406 1647.277344 1062.441406 1618.28125 M 1063.5 1425.910156 C 1063.5 1396.832031 1039.921875 1373.253906 1010.839844 1373.253906 C 981.765625 1373.253906 958.1875 1396.832031 958.1875 1425.910156 C 958.1875 1454.988281 981.765625 1478.5625 1010.839844 1478.5625 C 1039.921875 1478.5625 1063.5 1454.988281 1063.5 1425.910156 M 1403.261719 1629.972656 C 1396.191406 1636.042969 1386.53125 1645.535156 1374.269531 1658.421875 C 1297.089844 1739.527344 1187.851562 1793.464844 1076.179688 1806.78125 C 934.269531 1823.683594 790.988281 1769.691406 704.410156 1654.34375 C 649.730469 1581.535156 628.261719 1499.460938 640.039062 1408.089844 C 640.921875 1401.191406 643.085938 1393.011719 644.027344 1385.371094 C 646.253906 1383.800781 647.847656 1381.066406 648.847656 1377.160156 C 651.582031 1366.296875 653.863281 1356.378906 655.714844 1347.339844 C 656.117188 1345.371094 657.285156 1344.605469 659.25 1345.03125 L 669.203125 1347.199219 C 671.054688 1347.597656 672.222656 1349.421875 671.824219 1351.273438 C 668.972656 1364.21875 667.519531 1375.078125 667.433594 1383.832031 C 667.261719 1402.53125 696.425781 1407.007812 699.589844 1383.746094 C 700.988281 1373.453125 701.84375 1363.617188 702.097656 1354.269531 C 702.128906 1353.382812 702.585938 1352.984375 703.46875 1353.011719 L 719.0625 1353.613281 C 719.859375 1353.640625 720.488281 1354.296875 720.488281 1355.09375 C 720.429688 1370.261719 714.359375 1404.785156 740.414062 1401.535156 C 759.03125 1399.253906 753.101562 1367.980469 752.015625 1355.523438 C 751.933594 1354.351562 752.445312 1353.726562 753.613281 1353.613281 L 768.125 1352.074219 C 769.039062 1351.957031 769.835938 1352.613281 769.921875 1353.527344 C 771.03125 1366.8125 772.914062 1377.785156 775.539062 1386.453125 C 779.441406 1399.339844 799.285156 1398.96875 805.042969 1388.507812 C 809.574219 1380.296875 802.875 1357.03125 800.710938 1347.484375 C 800.480469 1346.425781 801.109375 1345.371094 802.136719 1345.117188 L 818.871094 1340.667969 C 820.152344 1340.328125 820.894531 1340.8125 821.121094 1342.09375 C 823.460938 1354.582031 828.078125 1372.199219 846.125 1367.722656 C 856.414062 1365.1875 859.75 1358.257812 856.128906 1346.941406 C 846.351562 1316.351562 838.167969 1285.90625 831.554688 1255.601562 C 899.433594 1273.476562 968.59375 1281.714844 1039.070312 1280.261719 C 1043.339844 1280.175781 1047.589844 1279.832031 1051.839844 1279.234375 C 1055.859375 1278.691406 1062.019531 1275.128906 1066.179688 1275.871094 C 1070.878906 1276.695312 1074.269531 1275.671875 1077.558594 1275.984375 C 1090.410156 1277.210938 1102.160156 1272.992188 1114.53125 1270.113281 C 1181.238281 1264.808594 1262.339844 1249.757812 1314.289062 1203.714844 C 1315 1203.058594 1316.140625 1203.058594 1316.851562 1203.742188 C 1434.710938 1314.011719 1470.199219 1483.382812 1403.261719 1629.972656 "/>
<path fill-rule="nonzero" fill="rgb(66.601562%, 81.25%, 78.90625%)" fill-opacity="1" d="M 1114.53125 1270.109375 C 1102.160156 1272.992188 1090.410156 1277.210938 1077.558594 1275.984375 C 1074.269531 1275.671875 1070.878906 1276.695312 1066.179688 1275.871094 C 1062.019531 1275.128906 1055.859375 1278.691406 1051.839844 1279.234375 C 1047.589844 1279.832031 1043.339844 1280.175781 1039.070312 1280.261719 C 968.59375 1281.714844 899.433594 1273.476562 831.554688 1255.601562 L 824.429688 1223.074219 C 824.199219 1222.046875 825.226562 1221.164062 826.222656 1221.5625 C 918.675781 1257.851562 1014.78125 1274.046875 1114.53125 1270.109375 "/>
<path fill-rule="nonzero" fill="rgb(66.601562%, 81.25%, 78.90625%)" fill-opacity="1" d="M 644.027344 1385.371094 C 643.085938 1393.011719 640.921875 1401.191406 640.039062 1408.089844 C 628.261719 1499.460938 649.730469 1581.535156 704.410156 1654.347656 C 790.988281 1769.691406 934.269531 1823.683594 1076.179688 1806.78125 C 1187.851562 1793.464844 1297.089844 1739.527344 1374.269531 1658.421875 C 1386.53125 1645.535156 1396.191406 1636.042969 1403.261719 1629.972656 C 1336.320312 1787.90625 1172.691406 1886.289062 1003.429688 1885.40625 C 823.203125 1884.492188 650.839844 1779.242188 588.949219 1605.996094 C 548.695312 1493.273438 560.46875 1362.191406 631.484375 1262.15625 C 633.222656 1259.707031 634.960938 1258.167969 636.703125 1257.511719 C 638.296875 1256.910156 639.039062 1257.480469 638.894531 1259.164062 C 636.1875 1292.691406 630.457031 1324.617188 621.761719 1354.921875 C 618.828125 1365.101562 617.800781 1372.113281 618.628906 1375.992188 C 620.652344 1385.34375 629.117188 1388.476562 644.027344 1385.371094 "/>
<path fill-rule="nonzero" fill="rgb(10.594177%, 5.883789%, 7.446289%)" fill-opacity="1" d="M 1063.5 1425.910156 C 1063.5 1454.988281 1039.921875 1478.5625 1010.839844 1478.5625 C 981.765625 1478.5625 958.1875 1454.988281 958.1875 1425.910156 C 958.1875 1396.832031 981.765625 1373.253906 1010.839844 1373.253906 C 1039.921875 1373.253906 1063.5 1396.832031 1063.5 1425.910156 "/>
<path fill-rule="nonzero" fill="rgb(10.594177%, 5.883789%, 7.446289%)" fill-opacity="1" d="M 1062.441406 1618.28125 C 1062.441406 1647.277344 1038.929688 1670.796875 1009.929688 1670.796875 C 980.9375 1670.796875 957.421875 1647.277344 957.421875 1618.28125 C 957.421875 1589.289062 980.9375 1565.769531 1009.929688 1565.769531 C 1038.929688 1565.769531 1062.441406 1589.289062 1062.441406 1618.28125 "/>
</svg>
