<svg xmlns="http://www.w3.org/2000/svg" width="1024" height="1024"><path fill="#3A3648" d="M476.475 187.047c8.92-.446 27.205 5.733 37.299 7.386 17.665 2.893 35.648 3.687 53.222 7.245 5.171 1.047 10.404 2.532 15.123 4.932 4.421 2.249 8.633 5.568 10.062 10.523 3.23 11.204-9.201 36.434-14.58 46.807 8.593-.019 13.017 3.558 20.686 5.572 6.195 1.627 12.697 2.345 18.953 3.851 28.632 6.896 52.428 13.193 67.023 41.248 4.433 8.52 7.764 17.688 11.361 26.578 3.491 8.625 7.891 17.756 15.176 23.835 13.666 11.402 36.114 9.748 53.48 18.573 12.302 6.252 21.836 16.413 26.095 29.633 6.707 20.823-3.327 41.959-12.706 60.275 24.244 13.221 42.69 33.531 61.648 53.174 7.285 7.548 14.623 15.925 23.306 21.892 8.652 5.945 18.567 9.413 28.395 12.844 19.829 6.923 41.852 14.471 55.695 31.156 9.129 11.005 12.598 24.101 11.118 38.236-1.732 16.551-12.146 25.741-24.268 35.633 14.125 6.68 29.849 19.091 36.051 33.862 3.331 7.935 3.827 16.901.53 24.944-4.345 10.6-14.371 17.247-24.625 21.382-40.225 16.222-77.332-1.051-113.459-18.135a666.17 666.17 0 0 0-33.503-14.928c-5.432 13.524-15.738 23.239-28.755 29.57-39.543 19.232-85.457 12.718-125.579-1.027-8.783 6.802-15.275 12.728-26 16.763-22.15 8.334-46.283 3.622-67.253-5.849-12.211-5.639-25.341-13.854-35.042-23.332a73.61 73.61 0 0 1-5.1 3.21 129.622 129.622 0 0 1-84.337 15.291c-7.858-1.264-15.551-3.524-23.217-5.632-17.623 13.35-28.217 15.926-50.038 16.851-7.744.328-15.058.834-22.544 3.016-7.51 2.189-14.713 5.791-21.933 8.794-10.417 4.333-21.269 8.108-32.269 10.646-26.193 6.044-53.683 7.051-77.315-7.841-11.098-6.994-18.605-16.253-21.498-29.13-30.787 10.494-69.632 19.227-100.432 4.584-9.916-4.714-18.673-12.162-22.376-22.785-3.782-10.846-2.01-22.874 2.941-33.019 13.527-27.71 45.632-47.665 74.038-57.599-5.385-2.791-10.643-5.644-15.35-9.511-10.173-8.358-17.064-19.42-18.298-32.677-3.258-35.019 27.601-60.041 54.415-76.764 12.115-7.556 24.974-14.044 36.792-22.053 9.126-6.185 17.41-13.095 24.628-21.465 10.109-11.722 16.141-25.318 23.148-38.913a450.384 450.384 0 0 1 13.925-24.817c3.127-5.202 6.275-10.529 10.201-15.176 5.232-6.193 9.949-8.523 17.993-9.226-5.543-10.945-7.87-22.077-3.963-33.961 12.073-36.728 60.215-43.163 92.386-51.442a224.149 224.149 0 0 0 27.295-8.936c13.328-5.48 25.509-13.149 35.212-23.891 14.798-16.382 21.891-38.411 30.995-58.141 3.211-6.959 8.14-18.511 15.248-22.056Zm93.179 190.827 7.04 2.108c-11.355-8.514-21.016-19.314-30.593-29.714-2.643 4.718-5.197 10.13-8.682 14.26 9.924 5.862 21.239 9.962 32.235 13.346Zm29.968 68.667c7.47-4.084 14.876-7.798 22.825-10.883-2.957-4.994-6.386-12.675-10.714-16.409-6.074 10.753-12.873 21.103-19.684 31.401 2.519-1.365 5.098-2.67 7.573-4.109Zm-61.357 115.992c2.972-.557 5.953-1.192 8.942-1.642 5.807-1.157 11.562-1.75 17.439-2.37-2.423-4.566-6.571-14.474-10.293-17.734-3.979 7.811-9.738 15.686-16.088 21.746Z"/><path fill="#32969A" d="M470.226 394.204c5.643 3.015 11.641 5.565 17.411 8.356 15.949 7.714 31.956 15.181 48.634 21.215 17.278 6.251 35.853 10.613 52.14 19.317-4.54 7.364-9.758 14.284-14.371 21.598-9.337 14.801-14.182 30.298-17.351 47.363a96.26 96.26 0 0 0-23.923-6.977c-15.786-2.38-31.903-.306-44.974 9.407-18.731 13.919-26.382 38.064-29.645 60.155-19.38-.484-37.302 5.208-54.781 13.065-24.166 9.505-42.059 16.57-68.601 16.299a198.897 198.897 0 0 0 1.679-3.671c7.8-17.387 9.847-36.28 2.852-54.342-7.131-18.412-20.32-30.022-38.072-37.807 4.78-3.849 10.278-6.745 15.741-9.498 27.005-13.609 49.999-15.296 77.975-23.466 40.452-11.814 56.621-46.913 75.286-81.014Z"/><path fill="#4F4159" d="M654.122 470.375c1.572.496 10.015 15.631 11.751 18.283 8.17 12.482 17.78 25.945 30.333 34.312 34.181 22.783 84.758 17.134 119.61 40.277-4.704 3.378-9.528 6.7-13.811 10.61-11.346 10.357-21.507 26.081-24.223 41.366-2.102 11.821-.322 29.299 6.629 39.39-5.109.783-10.389 1.775-15.58 1.544-9.309-.413-26.867-7.49-36.547-10.54-19.76-5.296-37.446-10.548-58.243-8.512a136.54 136.54 0 0 0-2.357-8.78c-4.761-15.53-15.053-29.27-29.608-36.846-17.402-9.058-38.705-7.595-56.873-1.794-3.521-8.132-6.111-16.789-9.932-24.767-5.574-11.64-12.332-22.684-17.592-34.506 1.741-4.997 3.036-9.998 4.167-15.166 11.874-5.719 24.902-9.109 36.937-14.57 19.225-8.724 37.029-19.888 55.339-30.301Z"/><path fill="#EF8550" d="M600.451 276.192a185.28 185.28 0 0 1 8.72 1.88c7.462 1.774 14.876 3.843 22.27 5.882 27.157 7.489 40.31 17.077 51.167 43.427 4.411 10.705 8.188 22.504 14.354 32.353 9.394 15.005 23.335 19.312 39.751 23.062-6.388 13.819-11.498 28.389-7.564 43.689 5.174 20.123 24.065 35.935 41.21 46.029-1.263 4.563-3.111 8.939-4.592 13.434a608.792 608.792 0 0 0-6.166 20.398c-7.548-2.788-14.834-6.245-22.508-8.694-19.851-6.855-40.957-7.84-61.75-6.874-9.654-12.768-16.238-27.529-25.067-40.857-5.366-8.1-11.045-13.493-20.809-15.45-2.22-3.506-4.189-7.165-6.439-10.65-2.678-4.147-5.914-8.237-7.991-12.722-2.857-6.167-.078-9.998-6.127-17.094-6.13-7.191-14.769-8.796-22.085-14.071-13.017-9.385-27.129-23.806-37.161-36.274a44.95 44.95 0 0 0 6.083-.592c13.3-2.098 25.02-10.479 32.811-21.261 9.206-12.74 14.447-29.91 11.893-45.615Z"/><path fill="#A186B1" d="M461.32 226.603c4.256 1.407 8.429 4.714 12.558 6.664a200.235 200.235 0 0 0 33.227 12.278c11.703 3.087 23.593 4.889 35.562 6.581 9.784 1.384 19.436 2.492 28.941 5.33-1.117 2.555-2.369 5.007-3.662 7.476-6.348 3.385-12.402 5.998-17.888 10.812-12.868 11.289-17.981 24.721-19.053 41.44-2.645-.558-5.4-.898-8.091-1.145-15.046-1.382-29.056.458-40.947 10.466-16.31 13.728-20.652 36.008-22.5 56.158-9.026 1.467-18.188 5.783-26.677 9.173-9.4 3.755-18.746 7.488-28.305 10.835-18.796 6.042-37.204 9.263-56.97 9.412.987-2.02 1.807-4.202 2.531-6.329 5.187-15.251 3.311-33.05-3.915-47.308-8.335-16.447-23.158-25.874-40.22-31.525 25.97-15.238 57.358-16.981 85.303-27.276 42.243-15.564 52.426-34.591 70.106-73.042Z"/><path fill="#EEE4CD" d="M247.536 429.755c7.697 4.371 15.99 7.825 24.075 11.415 22.175 9.844 45.129 18.949 68.818 24.459a210.346 210.346 0 0 0 16.395 3.132c4.458.629 11.233.169 15.219 1.847.356 1.131.239 1.689-.06 2.824-1.457 1.844-6.593 2.397-8.913 2.962-14.618 3.554-29.049 7.287-42.767 13.611-21.212 9.777-42.605 24.167-50.971 46.983-4.779 13.033-4.291 25.309 1.526 37.859-17.229 9.273-32.523 19.306-47.631 31.766-15.868 13.53-28.21 23.736-49.369 27.709 4.887-18.769 5.606-35.317-4.111-52.756-9.699-17.408-26.584-28.585-45.432-33.908a183.538 183.538 0 0 1 28.799-22.801c26.358-16.944 52.958-28.283 72.026-54.655 9.096-12.579 15.106-26.831 22.396-40.447Z"/><path fill="#32969A" d="M447.462 581.202c12.835-1.023 24.985 1.08 37.698 1.86 5.115.314 10.216.12 15.33-.082 6.199 17.205 20.2 31.671 36.426 39.815 8.071 4.051 16.973 6.884 25.522 9.744 20.35 6.808 41.929 13.917 58.303 28.315-17.075 9.553-31.297 19.544-40.01 37.691-8.641 17.997-9.181 37.61-2.53 56.32-5.328-.834-10.492-2.61-15.573-4.366-15.526-6.107-29.488-15.294-42.404-25.757-25.297-20.493-44.892-42.195-77.99-50.174-6.507-1.569-13.147-2.018-19.791-2.65 4.275-14.804 13.343-36.737 4.976-51.439-7.46-13.108-26.07-16.567-39.514-20.01 19.666-7.596 38.248-17.163 59.557-19.267Z"/><path fill="#EF8550" d="M377.126 604.598c.247-.006.495-.033.742-.02 6.272.342 29.314 7.517 34.888 10.554 3.033 1.653 5.784 3.815 7.8 6.647 9.685 13.606-1.376 36.04-5.407 50.322-1.931 6.843-3.07 13.99-4.313 20.986-3.752-.467-7.521-.994-11.301-1.163-12.376-.553-24.605 1.882-33.939 10.518-13.61 12.591-17.909 33.299-18.717 51.042-18.003-.304-32.362 8.868-48.744 14.747-12.474 4.476-24.796 7.689-37.885 9.796l1.391-5.354c2.625-15.822.176-30.615-9.091-43.93-10.964-15.753-27.697-23.677-46.083-26.939 12.347-8.931 25.623-14.065 39.989-18.722 8.823-2.861 17.839-5.498 26.405-9.068 32.151-13.4 45.285-36.581 64.183-63.565 14.212.422 26.447-2.52 40.082-5.851Z"/><path fill="#A186B1" d="M228.951 610.881c2.875 1.022 8.385 7.094 11.285 9.265 20.605 15.421 38.867 22.55 64.583 23.974-6.741 6.584-13.392 13.003-21.547 17.852-28.746 17.093-59.727 15.68-87.167 39.919-11.01 9.726-17.408 21.392-18.367 36.096-7.325 1.845-14.579 4.265-21.854 6.33-3.787 1.027-7.612 1.932-11.419 2.882.389-17.23-1.974-31.96-12.077-46.42-11.895-17.023-29.084-25.594-49.117-29.061 2.04-1.792 4.143-3.51 6.305-5.153 10.078-7.716 40.207-25.808 52.111-27.261 4.481-.547 9.344 1.099 13.796 1.627 32.618 3.866 49.696-11.368 73.468-30.05Z"/><path fill="#4F4159" d="M775.22 479.184c19.495 11.107 40.131 31.678 55.52 48.072 8.258 8.797 16.212 18.394 26.053 25.487 26.808 19.322 72.659 19.981 89.767 51.759 4.96 9.211 6.233 21.846 3.141 31.849-3.444 11.141-12.554 20.456-22.723 25.777-1.805-1.023-3.526-2.259-5.261-3.398-21.076-14.612-35.607-19.035-60.784-22.683-6.813-.988-14.207-1.222-20.694-3.576 3.885-5.105 8.186-11.205 9.721-17.526 2.806-11.546-.136-23.687-6.307-33.651-4.7-7.591-10.796-13.496-17.871-18.873-23.053-17.52-46.058-20.289-73.123-26.723 4.119-7.52 8.912-15.046 11.74-23.168 3.855-11.07 5.689-22.724 10.821-33.346Z"/><path fill="#EEE4CD" d="M833.66 638.944c31.486 4.114 56.545 5.443 83.467 24.573-13.629 5.997-25.853 12.845-33.23 26.348-9.298 17.02-5.999 34.771-.831 52.442-5.544-1.763-10.969-3.659-16.378-5.8-22.623-9.411-44.381-20.685-67.002-30.128a31.347 31.347 0 0 0-.308-7.836c-2.568-15.837-13.371-27.191-25.943-36.149 24.083-3.061 40.526-9.116 60.225-23.45Z"/><path fill="#EF8550" d="M601.037 630.172c2.912.373 9.713 7.606 12.835 9.5 5.518 3.347 12.228 5.98 18.589 7.113 14.033 2.499 26.458-1.818 40.161-3.336 23.68-2.625 51.737 5.449 74.024 13.606-11.045 3.513-22.059 8.591-31.049 16.008-13.713 11.314-21.906 26.635-23.574 44.312-.588 10.563.849 20.214 3.513 30.394-16.308-2.291-31.878-6.424-47.54-11.441 1.788-2.569 3.482-5.335 4.771-8.192 5.236-11.606 4.034-24.141-.526-35.754-8.948-22.788-27.904-39.727-49.341-50.687-6.849-3.501-14.086-6.322-21.135-9.401 6.581-.21 12.802-.976 19.272-2.122Z"/><path fill="#EF8550" d="M755.808 661.578c5.167-.836 9.879 3.053 13.951 5.79 10.58 7.112 20.289 17.005 22.702 30.001 1.524 8.205-.447 16.418-5.194 23.236-11.413 16.398-33.257 23.009-51.88 26.426-10.794 2.068-22.333 1.796-33.279 1.242a66.652 66.652 0 0 1-2.272-7.775c-3.88-16.324-2.54-33.395 6.451-47.822 11.882-19.065 28.526-26.276 49.521-31.098Z"/><path fill="#EEE4CD" d="M276.106 391.582c1.558-.096 3.302-.327 4.804.184 3.889 1.322 8.693 6.769 12.066 9.391 4.957 3.851 10.792 7.515 16.675 9.751 9.055 3.443 18.8 6.462 28.51 7.204 6.112.467 12.382.574 18.509.366 10.087-.343 20.117-2.196 29.86 1.553 2.423.932 5.112 2.301 6.091 4.885 2.981 7.87-8.068 30.128-11.593 38.437-3.561.307-7.043.357-10.617.294-41.629-2.424-82.366-22.091-119.776-39.118 5.105-9.144 15.944-29.397 25.471-32.947Z"/><path fill="#32969A" d="M504.419 359.58c4.196-.37 7.555.011 11.5 1.469 10.816 3.998 21.106 11.784 32.414 16.248 7.701 3.04 15.827 5.392 23.777 7.679 9.436 2.715 21.619 4.676 29.434 10.911 3.249 2.592 5.371 5.618 5.701 9.84.829 10.628-9.301 24.301-15.632 32.063-3.447-1.768-6.97-3.374-10.486-4.999-18.101-7.314-36.959-12.511-55.124-19.703-18.054-7.148-35.12-16.218-52.778-24.233 8.111-12.374 15.86-25.505 31.194-29.275Z"/><path fill="#EEE4CD" d="M919.537 670.071c4.876-.555 8.377.871 12.608 3.152 12.645 6.813 27.645 17.993 31.816 32.497 1.899 6.604 1.484 13.863-2.044 19.856-6.556 11.136-20.71 15.934-32.536 18.764-12.079 2.778-26.413 2.456-38.443-.412-1.646-3.292-2.937-6.87-3.989-10.393-4.066-13.616-4.273-28.953 2.75-41.649 6.37-11.515 17.465-18.284 29.838-21.815Z"/><path fill="#32969A" d="m625.013 665.908 1.213.101c10.167 6.516 19.948 25.306 22.632 36.856 2.227 9.585.966 18.759-4.308 27.126-8.869 14.068-24.381 22.095-40.152 25.744-6.381.769-12.532.819-18.945.534-6.416-16.269-8.012-32.007-2.196-48.741 7.393-21.271 22.317-32.147 41.756-41.62Z"/><path fill="#A186B1" d="M478.22 193.012c12.166 3.803 24.893 6.366 37.464 8.405 12.603 2.044 61.412 4.95 67.864 14.851 1.879 2.884 1.52 6.704.983 9.939-.787 4.743-5.827 22.856-9.409 25.427l-1.741-.402c-11.238-3.287-22.883-4.22-34.421-5.986-29.771-4.557-48.328-10.251-74.913-24.895 4.189-9.392 8.313-18.841 14.173-27.339Z"/><path fill="#4F4159" d="M420.276 678.343c37.095.913 64.4 22.508 89.854 47.151-7.114 3.346-14.2 6.748-21.504 9.665-27.718 10.482-53.352 9.719-81.662 1.984 10.769-22.632 7.25-37.197 13.312-58.8Z"/><path fill="#A186B1" d="m78.453 677.467.884.095c18.113 2.055 34.442 9.656 45.916 24.176 10.826 13.7 14.597 29.426 12.678 46.611-5.983 1.495-12.603 1.59-18.752 1.933-6.313.338-12.993-.241-19.228-1.254-12.558-2.039-27.234-7-34.89-17.866-4.848-6.878-6.195-15.15-4.707-23.334 1.782-9.797 9.927-24.661 18.1-30.361Z"/><path fill="#32969A" d="M294.398 513.505a40.184 40.184 0 0 1 13.335 4.478 56.461 56.461 0 0 1 27.191 33.976c5.028 17.159 1.963 35.959-6.598 51.438-3.478-.716-6.859-1.813-10.254-2.843-14.474-4.915-29.613-11.504-38.608-24.5a38.79 38.79 0 0 1-6.247-29.467c2.342-12.728 10.481-25.759 21.181-33.082ZM521.075 510.715c12.11-.12 22.817 2.98 34.068 7.16-4.872 13.349-7.619 21.811-16.463 33.568-10.525 13.992-22.259 22.794-39.719 25.305-11.096 1.325-23.136-.795-34.239-1.839 1.365-16.648 7.591-35.684 18.872-48.29 10.407-11.63 22.37-14.997 37.481-15.904Z"/><path fill="#EEE4CD" d="M119.788 553.381c2.831.404 5.762 1.223 8.476 2.117 15.557 5.121 30.228 17.187 37.547 31.932 7.795 15.704 6.343 31.482.881 47.594-3.266-.038-6.556-.38-9.814-.624-14.142-1.197-27.836-5.471-38.361-15.346-8.274-7.763-13.323-17.988-13.612-29.389-.347-13.741 5.567-26.413 14.883-36.284Z"/><path fill="#EF8550" d="M198.823 708.055c4.994-.187 9.911.068 14.781 1.247 14.319 3.465 28.32 13.267 35.996 25.874 8.727 14.332 8.115 28.108 4.208 43.803-3.813.244-7.606.342-11.427.382-17.652-1.223-36.537-5.235-49.07-18.846-6.222-6.757-9.74-15.592-9.234-24.822.572-10.459 7.039-20.834 14.746-27.638Z"/><path fill="#A186B1" d="M298.472 331.978a58.341 58.341 0 0 1 14.161 3.944c13.722 5.828 24.976 16.6 30.446 30.559 5.936 15.147 4.377 30.498-2.053 45.146-3.304-.167-6.534-.71-9.796-1.228-16.436-3.001-33.924-11.463-43.827-25.344-5.666-7.942-8.345-17.306-6.595-27.012 1.885-10.46 8.985-20.11 17.664-26.065Z"/><path fill="#4F4159" d="M820.476 567.372c.518.012.671-.022 1.219.202 6.406 2.613 17.299 16.597 20.025 23.223 3.479 8.456 4.113 17.812.522 26.35-6.425 15.276-23.239 25.423-37.908 31.352-4.529 1.724-9.095 3.152-13.737 4.529-5.764-11.856-8.993-23.219-6.629-36.538 3.713-20.921 19.794-37.429 36.508-49.118ZM559.569 565.707c2.727-.428 5.752-.333 8.523-.469 5.707 8.831 8.124 19.906 12.44 29.495 4.621 10.266 11.133 19.855 17.042 29.426-15.735 3.424-32.489 2.117-47.803-2.599-20.742-8.618-33.457-19.493-42.996-39.766 5.021-1.455 10.841-2.875 15.364-5.566 3.134-1.865 6.047-4.641 9.429-6.019 6.818-2.78 20.367-3.631 28.001-4.502Z"/><path fill="#A186B1" d="M273.54 580.889c2.868.995 9.171 8.93 12.141 11.322 11.385 9.17 29.24 15.025 43.328 18.13-5.619 9.532-12.955 19.344-19.843 28.023-5.621-.307-11.189-.903-16.783-1.519-23.269-3.388-40.985-15.261-58.377-30.253 12.115-10.234 25.556-18.309 39.534-25.703Z"/><path fill="#4F4159" d="M743.095 383.41c5.488 1.454 10.925 2.944 16.089 5.345 10.898 5.067 19.98 12.954 24.058 24.514 6.393 18.126-.96 34.859-8.787 51.133-.423.886-.66 1.226-1.507 1.733-.572-.121-1.071-.233-1.605-.482-2.977-1.383-5.747-3.703-8.375-5.664-10.468-7.815-21.772-17.923-26.167-30.703-5.987-17.404-1.387-30.037 6.294-45.876Z"/><path fill="#EF8550" d="m465.319 388.176.223.161c.32 2.739-20.358 36.85-23.453 41.667-15.002 23.349-29.947 35.096-57.033 41.003l2.95-6.968c3.644-10.303 14.797-31.219 10.725-41.303-2.033-5.036-6.145-7.174-10.877-9.09 26.7-5.954 50.779-20.055 77.465-25.47ZM577.295 270.176c3.866-.229 8.676.276 12.067 2.244 2.787 1.617 4.579 4.057 5.331 7.183 2.421 10.061-2.947 25.874-8.148 34.485-7.295 12.076-17.914 19.906-31.544 23.278-3.362.432-6.61.612-9.998.634a40.096 40.096 0 0 1-7.07-17.749c-1.608-11.922 2.701-23.638 9.946-32.997 7.63-9.856 17.055-15.491 29.416-17.078Z"/><path fill="#4F4159" d="M629.273 441.654c1.312.026 2.514.168 3.778.546 8.809 2.64 14.805 15.133 18.649 22.696-12.767 6.546-24.757 14.366-37.361 21.213-10.758 5.843-22.276 10.778-33.718 15.114a956.747 956.747 0 0 1-17.201 6.408c3.864-14.969 9.095-30.581 18.472-43.086 1.443-1.925 3.088-3.751 5.108-5.087 3.563-2.356 8.572-3.28 12.507-5.042 10.33-4.622 18.086-11.145 29.766-12.762ZM611.264 591.215c10.376.12 20.529 1.621 29.628 6.88 15.135 8.749 22.567 23.249 27.04 39.568-7.482 1.645-14.97 2.58-22.583 3.326-6.22-.001-12.251-.178-18.222-2.103-19.175-6.184-31.08-27.085-39.868-43.95a133.95 133.95 0 0 1 24.005-3.721Z"/><path fill="#EF8550" d="M389.062 698.156c6.855-.909 14.177-.179 21.04.43-.721 10.914-1.951 22.48-7.481 32.135-6.508 11.363-17.006 16.708-29.243 20.106-6.698 1.53-13.553 2.111-20.406 2.274.113-13.495 3.737-29.511 11.78-40.591 6.062-8.351 14.212-12.811 24.31-14.354Z"/><path fill="#A186B1" d="M508.672 322.19c7.795-.494 15.421.359 23.175 1.08 1.996 7.504 4.87 14.01 8.9 20.644-2.561 6.233-5.509 11.706-9.708 16.987-6.29-3.096-12.684-6.608-19.701-7.675-9.406-1.43-16.31 2.1-23.601 7.402-5.948 4.491-14.492 18.052-18.58 19.835-1.017.444-1.189.344-2.159-.031-.323-.667-.361-.666-.549-1.503-.527-2.348.428-6.042.83-8.416 2.006-11.836 5.125-23.67 12.763-33.225 7.277-9.103 17.178-13.842 28.63-15.098Z"/><path fill="#4F4159" d="M684.288 497.188c18.407-1.314 37.797 1.767 55.143 7.966 6.094 2.177 12.029 4.928 18.048 7.32-2.506 6.166-5.564 11.983-8.705 17.84l-2.049 4.002c-8.001-2.062-16.053-3.829-23.931-6.357a88.285 88.285 0 0 1-37.298-23.189c-1.877-1.933-4.405-4.16-5.634-6.566.895-1.058 3.025-.886 4.426-1.016Z"/></svg>