<svg xmlns="http://www.w3.org/2000/svg" width="1024" height="1024"><path fill="#2B1F37" d="M570.315 89.231c3.598.12 7.017.02 10.226 1.874.632.766.989 1.4 1.17 2.373 1.991 10.661-4.356 35.928-10.824 45.221-12.585 18.082-37.742 23.865-58.224 27.455-6.493 35.358-14.275 60.382 4.288 94.165 15.037-15.819 31.953-31.6 50.92-42.585-2.052-4.654-3.801-9.369-6.09-13.929-4.211-8.39-12.111-19.316-13.871-28.352-.159-.817-.287-1.665.24-2.36 5.799-7.639 75.911-34.058 87.984-36.32 5.267 10.494 8.813 21.441 12.973 32.374 8.173 21.481 18.902 43.229 34.324 60.454 16.139 18.025 38.113 21.46 59.051 30.954 9.728 4.411 19.357 10.768 27.453 17.714 8.206 7.039 15.265 15.145 20.2 24.817 6.097 11.952 10.308 27.948 5.843 41.112-3.705 10.924-12.877 18.545-22.986 23.458-18.977 9.221-40.438 7.604-59.279-1.021-9.505-4.352-18.482-9.966-27.856-14.621-9.784-4.858-19.949-8.534-30.241-12.145-.365 6.986-1.886 14.362-3.345 21.204-6.405 30.053-19.395 55.423-39.513 78.654 28.254-21.243 68.846-36.318 103.983-39.695 22.85-2.196 42.779 2.425 59.95 18.115 4.978 4.55 9.085 10.187 14.308 14.408.146.118.296.232.443.348.059-3.103.027-6.137-.395-9.217-.968-7.061-6.727-30.039-2.933-35.814.893-1.36 1.187-1.248 2.703-1.543l-.693.036c12.868-2.327 26.563-.848 39.624-1.447 14.693-.673 31.627-3.164 46.041-2.602l-.154.072c.609.084 1.22.162 1.831.234 4.999 5.444 2.52 23.806 2.351 31.387-.502 22.582 2.561 64.601 13.903 84.315 3.132 5.442 7.469 9.666 12.437 13.435 6.085 4.618 12.782 8.456 19.113 12.727 8.902 6.006 17.535 13.198 24.936 20.996 15.023 15.831 24.716 37.134 23.922 59.22-.361 10.04-4.179 19.315-11.663 26.134-10.972 9.996-26.966 14.097-41.526 13.399a65.602 65.602 0 0 1-30.487-9.074c-18.054-10.923-28.926-30.656-46.07-42.946-8.588-6.157-18.18-11.545-27.665-16.196-15.061-7.384-33.609-13.214-44.975-26.019-12.24-13.79-10.822-31.612-2.39-46.984 4.822-8.792 11.134-16.612 15.031-25.931 5.063-12.11 6.204-25.14 7.008-38.096-8.373 5.49-16.496 10.61-26.362 12.97-18.593 4.449-36.404-2.054-50.895-13.78-5.77-4.669-10.951-10.059-16.671-14.791-4.839-4.002-10.053-7.391-15.394-10.666-32.864 10.734-61.225 25.728-87.442 48.335 2.664 5.668 6.97 11.348 11.5 15.659 11.759 11.193 24.795 12.124 40.224 11.788 3.147-9.123 5.072-20.504 10.198-28.754.956-1.54 2.027-2.838 3.865-3.208 1.579-.319 2.818-.012 4.308.507 10.217 3.558 20.084 8.728 30.115 12.861a909.027 909.027 0 0 0 22.724 9.009c8.492 3.231 18.27 6.192 25.762 11.375-3.368 11.459-9.107 22.125-13.435 33.241-8.638 22.181-13.258 44.223-15.987 67.775 7.416-4.216 14.24-9.488 21.808-13.422 11.641-6.053 26.206-8.725 38.928-4.481 4.37 1.458 8.785 3.687 12.808 5.914 4.963 2.747 29.494 17.5 31.327 21.068 0 1.68-.214 2.807-1.091 4.266-6.373 10.603-26.997 18.832-38.511 21.544 23.361 7.787 50.959 17.514 68.983 34.884 9.503 9.157 14.697 20.261 18.946 32.563 1.129 3.27 2.62 7.118 2.521 10.627-.034 1.218-.373 2.077-1.276 2.905-5.42 4.973-21.122 4.149-27.919 3.6-14.029-1.134-25.076-6.779-34.184-17.516-14.237-16.783-17.538-35.614-15.819-56.981-30.479-12.401-51.099-14.722-76.526-39.072-.339 3.106-.277 6.239-.298 9.361 4.6 6.449 8.33 13.565 12.397 20.359 6.609 11.038 13.515 21.993 19.209 33.543 9.458 19.184 16.554 40.307 9.204 61.455-3.928 11.304-11.363 21.958-22.424 27.162-11.428 5.377-25.824 4.316-37.44.087-28.266-10.292-37.375-35.048-49.058-59.976-6.228-1.361-12.402-2.994-18.71-3.949-18.374-2.785-40.236-2.002-57.13 6.536-14.51 7.333-22.688 28.303-27.386 42.853-9.577 29.66-7.669 52.674 6.558 80.557a209.695 209.695 0 0 1 26.581 9.436c21.739 9.413 45.492 24.425 54.434 47.517 4.094 10.57 4.638 22.555-.049 33.028-5.659 12.645-18.565 21.718-31.161 26.505-11.133 3.644-22.278 5.099-33.916 3.403-11.557-1.683-21.244-7.422-31.772-12.054a165.544 165.544 0 0 0-25.409-8.851c-21.973-5.758-44.792-5.222-66.981-9.685-5.588 7.385-13.437 14.123-21.808 18.139-37.417 17.95-70.146-17.609-103.291-29.375-23.017 14.459-41.49 39.015-70.381 41.621-20.319 1.834-36.451-5.36-51.774-18.185-22.91-4.015-45.449 3.296-67.731 7.851-19.791 4.046-38.59 3.242-55.83-8.274-11.3-7.549-20.457-18.451-23.006-32.081-2.292-12.256 1.687-24.952 8.745-34.992 16.16-22.989 48.362-31.226 74.968-32.546 11.303-.561 23.499.432 34.613-1.537 23.286-4.125 37.35-25.161 49.928-43.225 5.441-7.813 11.082-15.597 16.043-23.728 4.325-7.088 8.211-14.464 12.996-21.259 7.821 2.554 15.355 8.515 22.591 12.515 9.599 5.306 19.627 9.964 29.578 14.573 4.849-11.98 9.172-26.324 11.125-39.166 1.411-9.276-1.13-24.682 2.821-32.562 1.625-1.254 4.117-1.346 6.1-1.431 8.455-.361 84.678 13.502 88.753 18.843 3.204 4.198-5.832 28.884-7.625 34.547 10.497-5.294 21.326-9.564 32.353-13.609-1.629-6.743-3.651-13.464-6.378-19.849-18.74-43.894-63.963-77.979-107.248-95.313.333 6.277.626 12.451-.625 18.659-2.793 13.869-12.548 26.244-24.199 33.937-11.599 7.659-24.537 10.032-38.202 10.537-2.96.109-6.451.466-9.336-.228-1.025-.247-1.472-.415-1.945-1.393-2.804-5.798 3.807-27.721 6.723-33.847 8.786-18.455 23.054-28.864 41.91-35.505-7.832-3.109-15.556-5.856-23.73-7.936-.394.343-.793.68-1.196 1.012-10.642 8.833-23.359 13.681-37.244 12.254-17.883-1.839-32.822-12.618-43.915-26.289-3.559-4.385-12.263-14.778-11.109-20.813.307-1.605 1.2-2.509 2.575-3.258 3.148-1.714 6.996-2.408 10.464-3.242 13.788-3.315 27.283-4.537 41.113-.584 18.633 5.325 32.427 18.145 41.713 34.875a1393.238 1393.238 0 0 0 28.391 10.172c-8.974-9.53-17.224-18.41-21.331-31.151-6.025-18.69-1.733-40.763 7.349-57.857 1.025-1.929 1.914-3.582 4.071-4.256 5.445 2.566 14.84 10.506 19.552 14.838 12.383 11.386 20.509 25.549 21.125 42.625.598 16.585-5.383 27.425-16.406 39.319 4.725 2.945 10.324 4.976 15.391 7.295 7.836 3.586 15.515 7.395 22.939 11.779 38.916 22.981 73.235 57.464 84.78 102.278 4.548-1.4 9.071-2.883 13.565-4.448 1.727-26.718 1.931-57.509-6.21-83.276-8.176-25.881-26.164-47.5-41.071-69.694a741.77 741.77 0 0 1-31.762-52.159c-10.813 1.819-21.642 3.242-32.627 2.136-22.011-2.215-39.41-14.209-57.487-25.791a1056.963 1056.963 0 0 0-29.079-18.186c-6.488 5.45-14.722 9.357-22.795 11.792-15.974 4.817-33.834 3.327-48.509-4.747-9.322-5.129-30.81-24.296-33.123-34.42-.321-1.407-.126-2.277.696-3.476 2.628-3.835 13.587-5.724 18.085-6.777 23.399-5.479 47.022-.458 66.132 14.077 6.78 5.157 12.641 11.422 19.413 16.564 5.26 3.994 10.928 7.201 16.522 10.678-7.985-10.589-14.107-23.644-15.614-36.911-2.144-18.869 3.999-31.709 15.35-46.14l-1.833-.253c-15.568-2.207-31.603-9.088-41.201-22.076-6.309-8.536-7.694-18.605-6.044-28.935 4.929-30.87 37.621-53.357 64.491-64.45 12.714-5.248 27.86-8.566 38.502-17.603 13.711-11.642 21.117-30.739 27.916-46.969 2.847-6.795 5.869-13.607 7.895-20.702 1.283-4.49 1.876-9.308 2.656-13.911 1.124-6.63 2.007-20.974 7.657-25.043 9.429-2.486 78.018 19.894 88.22 25.439-1.701-3.23-3.313-6.478-4.661-9.874-4.982-12.557-4.463-35.167 1.121-47.4.98-2.148 2.039-3.426 4.27-4.276 6.85.045 16.032 6.987 21.353 10.939 16.058 11.923 26.404 28.88 29.349 48.679 1.248-19.602 6.975-48.587 20.521-63.18 11.156-12.018 27.465-18.451 43.672-19.05Zm-50.213 175.481c8.095 9.053 18.205 18.27 31.078 18.79 4.459.18 12.399-2.709 16.015-.457.168.893.357.916-.158 1.751-1.305 2.119-4.665 3.32-7.007 3.67-11.776 1.76-24.374-2.547-33.564-9.766a66.44 66.44 0 0 1-9.964-9.831c-30.29 33.487-51.76 64.449-49.351 111.878.442 8.708 1.711 16.916 4.149 25.281 22.274-8.931 35.587-27.474 44.8-48.919 2.78-6.471 10.26-31.168 15.723-33.693 1.89-.874 6.364.974 8.315 1.672 12.945 4.626 25.599 11.07 38.265 16.476 6.431 2.744 14.142 4.959 20.15 7.828 1.382.66 2.786 1.745 3.313 3.235.974 2.75-.552 6.302-1.654 8.827-7.737 17.709-19.934 33.857-23.799 53.056a82.287 82.287 0 0 0-1.473 18.157c.374 11.675 2.64 22.556-1.874 33.774a40.201 40.201 0 0 1-3.188 6.274c-5.129 8.168-12.982 13.514-22.366 15.598-8.927 1.981-18.232 1.332-27.306 1.39a98.487 98.487 0 0 0-30.1 4.872c-6.14 1.964-12.142 4.239-18.164 6.531.159 17.103-1.742 32.09-14.273 44.91-10.701 10.946-22.837 14.297-36.32 19.952 6.007 7.341 11.47 15.135 16.975 22.854 9.079 12.729 24.795 37.809 41.757 39.636 5.857.631 11.961-2.185 16.39-5.88a31.27 31.27 0 0 0 2.654-2.52c13.472-14.195 15.919-35.731 21.831-53.612 4.763-14.404 10.501-28.791 18.192-41.904 9.31-15.873 20.922-30.026 32.289-44.426 5.347-6.774 10.321-13.902 15.959-20.433 17.129-19.844 32.68-35.085 45.261-58.755 7.411-13.942 13.002-29.693 15.516-45.27.958-5.936 1.094-11.916 1.939-17.839-21.134-2.664-58.167-5.856-71.949-24.03-11.315-14.92-3.221-36.208-2.799-53.064.266-10.634-1.396-21.085-3.988-31.366-.377-1.496-1.069-5.92-2.701-6.412-18.089 12.4-33.621 25.658-48.573 41.765Zm-58.616 104.067c2.822-46.299 22.873-71.217 51.701-104.326-11.024-18.053-13.569-37.335-13.688-58.057-12.193-5.05-23.485-11.017-33.374-19.911-3.12-2.806-5.931-7.574-9.363-9.747-1.364 11.894-7.841 23.498-12.361 34.483-4.373 10.627-8.064 21.992-9.96 33.339a82.886 82.886 0 0 0-.727 21.529c2.06 20.799 13.533 55.597-5.722 71.414-5.167 4.245-11.572 6.164-17.889 7.964 15.469 12.91 32.163 18.517 51.383 23.312Zm-60.57-21.628c-23.092 3.5-46.673 8.161-67.546 19.091a407.262 407.262 0 0 0 84.376 194.78c18.098-5.233 33.484-12.265 43.846-28.657 4.16-9.363 6.97-18.673 5.303-28.938l-.769.065c-6.53.594-12.737 3.311-19.089 4.828-17.28 4.126-35.334.46-49.099-10.905-7.589-6.265-13.454-14.941-14.42-24.923-1.073-11.081 3.81-21.811 10.782-30.168 17.614-21.113 47.05-26.378 71.901-34.256-2.793-11.074-4.746-22.388-4.702-33.849-13.956-3.093-27.442-6.973-40.082-13.863-2.927-1.595-5.946-3.209-8.567-5.28-1.944-1.535-8.188-7.538-10.144-8.035-.579-.147-1.193.073-1.79.11Zm149.597 356.043c15.349-23.969 35.778-48.242 60.744-62.691-12.905-10.788-28.514-27-29.995-44.565-.951-11.284 4.264-20.393 11.398-28.696 14.016-16.316 30.997-29.548 41.59-48.703 4.352-7.87 7.258-16.307 10.657-24.593-16.711.167-30.901-2.245-43.265-14.403-3.522-3.463-6.596-7.398-9.818-11.139-3.678 5.895-7.308 11.835-11.38 17.47-9.544 13.21-19.962 25.796-27.666 40.231-7.28 13.641-12.822 28.573-17.576 43.259-16.71 51.628-17.557 92.878-10.812 146.089 1.636 12.905 2.889 26.199 5.905 38.854a71.407 71.407 0 0 0 1.324 4.739c2.506-20.502 8.559-37.951 18.894-55.852ZM278.819 387.3c12.504 10.512 20 23.272 21.46 39.756 1.328 14.984-2.674 30.287-12.503 41.839-2.667 3.135-5.735 5.944-8.822 8.658 9.252 7.171 19.571 13.201 29.829 18.804 18.887 10.546 36.821 11.655 57.767 7.891-13.364-29.954-22.976-55.58-30.508-87.55-1.549-6.571-2.992-13.103-4.051-19.771-.817-5.148-2.368-24.412-3.982-27.811l-.73-.136c-15.38 8.445-31.06 15.305-48.46 18.32Zm315.697 292.372c16.266-1.562 31.28-.125 47.263 2.653-3.768-7.79-20.02-34.047-26.415-36.732-.186-.078-.392-.095-.588-.142-18.121 10.22-32.327 24.332-45.304 40.367 8.294-3.011 16.205-5.341 25.044-6.146Z"/><path fill="#FB9F5C" d="M651.645 489.604c24.166 11.676 48.666 20.492 73.768 29.753-7.388 19.205-23.12 73.198-15.95 91.768 2.943 7.624 8.927 14.688 13.279 21.621 10.447 16.641 20.354 33.98 26.398 52.759-19.617-.278-37.156 4.299-53.327 15.556-9.813 7.806-16.56 15.853-22.125 27.105-11.067-11.621-16.739-28.335-23.791-42.489-7.579-15.212-16.405-28.891-27.951-41.429 5.964-9.33 11.341-19.063 14.535-29.719 7.551-25.196.259-49.672-11.69-72.107 13.011-16.092 20.488-33.405 26.854-52.818ZM312.263 714.391c11.487 3.025 23.597 4.253 35.328 6.071 15.505 2.401 30.728 5.35 45.872 9.455-1.448 3.287-3.41 6.197-4.612 9.635-4.693 13.419-3.24 30.028-2.27 44.065-14.984 8.78-28.552 19.275-38.217 33.93-12.327 18.693-14.995 35.444-10.535 57.125-25.631 11.587-38.694 21.753-59.699 40.365-5.518 4.446-11.471 7.876-17.892 10.829 2.691-11.942.24-24.252-5.634-34.9-10.689-19.378-29.191-29.966-49.884-35.912 15.1-21.536 40.112-32.98 61.675-46.708 6.954-4.428 13.505-9.768 18.578-16.309 15.63-20.157 21.875-53.194 27.29-77.646ZM403.044 769.535c24.618-10.247 50.24-17.641 74.804-27.903 5.997 14.024 12.211 27.808 19.062 41.442.707 1.28 1.546 2.595 2.122 3.934 14.809 20.769 23.471 27.031 48.045 34.266 3.908 1.015 7.977 1.861 11.556 3.79 16.124 4.467 30.49 12.281 44.196 21.714-6.441 3.93-12.271 8.487-16.623 14.75-.838 1.277-1.705 3.03-2.756 4.102-5.757 9.643-11.647 20.265-13.191 31.555l-.497 2.878c-1.579 11.324-.547 20.112 3.737 30.672-18.068-2.188-29.71-9.698-46.092-15.905-12.944-4.904-25.899-7.764-39.552-9.893-.476-4.21-1.395-8.372-2.211-12.527l-1.007-4.496c-4.049-12.144-9.773-22.763-17.729-32.783-1.929-1.486-3.566-3.52-5.226-5.303-13.222-10.554-25.993-16.511-42.296-20.777-.098-2.966-.337-5.941-.511-8.905l-.359-3.162c-1.874-11.233-5.657-22.027-9.919-32.546-.686-1.211-1.198-2.663-1.762-3.944-1.401-3.628-2.716-7.22-3.791-10.959Z"/><path fill="#FB9F5C" d="M403.044 769.535c24.618-10.247 50.24-17.641 74.804-27.903 5.997 14.024 12.211 27.808 19.062 41.442.707 1.28 1.546 2.595 2.122 3.934 14.809 20.769 23.471 27.031 48.045 34.266-7.138 1.954-21.409-.51-29.232-.934a1853.995 1853.995 0 0 0-32.32-1.413c-22.283-.757-44.787-.078-67.009-1.943-1.874-11.233-5.657-22.027-9.919-32.546-.686-1.211-1.198-2.663-1.762-3.944-1.401-3.628-2.716-7.22-3.791-10.959Z"/><path fill="#FB9F5C" d="M403.044 769.535c24.618-10.247 50.24-17.641 74.804-27.903 5.997 14.024 12.211 27.808 19.062 41.442-5.276 1.718-78.069-2.049-90.075-2.58-1.401-3.628-2.716-7.22-3.791-10.959Z"/><path fill="#D3473A" d="M406.835 780.494c12.006.531 84.799 4.298 90.075 2.58.707 1.28 1.546 2.595 2.122 3.934-15.455-.46-30.909-.519-46.367-1.067-7.073-.251-39.388-2.794-44.068-1.503-.686-1.211-1.198-2.663-1.762-3.944Z"/><path fill="#FB9F5C" d="M466.908 855.131c14.34-.842 105.696 6.462 116.542 10.499-5.757 9.643-11.647 20.265-13.191 31.555l-.497 2.878c-1.579 11.324-.547 20.112 3.737 30.672-18.068-2.188-29.71-9.698-46.092-15.905-12.944-4.904-25.899-7.764-39.552-9.893-.476-4.21-1.395-8.372-2.211-12.527l-1.007-4.496c-4.049-12.144-9.773-22.763-17.729-32.783Z"/><path fill="#FB9F5C" d="M485.644 892.41c1.288-.623 2.402-.431 3.762-.304 13.271 1.241 26.528 3.311 39.775 4.851a495.307 495.307 0 0 0 40.581 3.106c-1.579 11.324-.547 20.112 3.737 30.672-18.068-2.188-29.71-9.698-46.092-15.905-12.944-4.904-25.899-7.764-39.552-9.893-.476-4.21-1.395-8.372-2.211-12.527Z"/><path fill="#D3473A" d="M484.637 887.914c17.063 2.064 34.072 4.312 51.177 6.024 11.422 1.144 23.106 1.597 34.445 3.247l-.497 2.878a495.307 495.307 0 0 1-40.581-3.106c-13.247-1.54-26.504-3.61-39.775-4.851-1.36-.127-2.474-.319-3.762.304l-1.007-4.496ZM418.516 816.984c22.222 1.865 44.726 1.186 67.009 1.943 10.777.377 21.551.848 32.32 1.413 7.823.424 22.094 2.888 29.232.934 3.908 1.015 7.977 1.861 11.556 3.79-5.193.994-11.739-.097-17.055-.335l-32.321-1.395c-30.112-1.235-60.295-1.459-90.382-3.188l-.359-3.162ZM461.682 849.828c26.591 3.044 53.485 4.586 80.151 7.086 14.729 1.381 29.592 4.397 44.373 4.614-.838 1.277-1.705 3.03-2.756 4.102-10.846-4.037-102.202-11.341-116.542-10.499-1.929-1.486-3.566-3.52-5.226-5.303Z"/><path fill="#877595" d="M866.077 417.791c2.584-.245 5.201-.303 7.795-.433a289.345 289.345 0 0 0 6.071 55.872c8.045 40.52 16.618 38.021 47.394 59.832 11.369 8.057 20.409 18.049 29.109 28.81-6.252 2.744-12.448 5.586-18.283 9.157-24.506 14.999-35.318 33.578-41.91 60.955-4.279-2.516-8.083-5.743-11.858-8.942-8.346-7.983-15.536-17.107-23.946-25.035-11.305-10.656-24.622-18.334-37.932-26.146 6.537-15.048 6.869-31.2 2.381-46.904-5.308-18.572-15.931-38.873-33.387-48.545 4.813-18.853 6.159-36.937 5.871-56.365 22.922.412 45.85-.341 68.695-2.256ZM354.882 209.684c29.248-1.237 52.39 4.748 76.772 21.045a142.048 142.048 0 0 0-4.183 32.886c-18.638 9.832-37.833 18.343-49.699 36.68-9.179 14.186-12.466 30.307-8.953 46.869-23.158 5.683-40.363 16.193-61.694 25.572a312.28 312.28 0 0 1-25.578 9.158c3.064-9.12 4.748-17.751 2.926-27.346-4.391-23.126-22.69-38.937-41.144-51.578 13.944-14.262 33.467-22.357 51.806-29.286 10.046-3.796 20.693-7.501 29.09-14.416 9.841-8.104 17.419-22.425 22.565-33.851 1.966-4.364 4.11-11.945 7.48-15.185.197-.189.408-.365.612-.548Z"/><path fill="#F67359" d="M245.279 733.642c16.502 8.979 32.73 17.474 50.091 24.688-3.541 9.931-6.779 19.9-13.189 28.448-7.585 10.115-18.487 16.479-29.163 22.827-22.191 13.195-45.946 27.571-58.185 51.304-8.217 15.932-9.322 32.081-3.952 49.11-21.99-3.074-46.095 4.244-67.493 8.961-8.481 1.596-16.822 2.425-25.454 2.418 7.106-12.573 11.532-25.453 10.624-40.07-1.246-20.049-12.92-34.077-27.416-46.751 19.137-8.676 38.778-12.022 59.652-12.429 10.914-.213 22.535.431 33.021-3.043 7.227-2.395 13.613-6.565 19.264-11.618 16.659-14.897 41.927-53.185 52.2-73.845Z"/><path fill="#2B1F37" d="M197.082 829.293a4.788 4.788 0 1 1 3.98 8.71 4.788 4.788 0 0 1-3.98-8.71ZM110.319 843.743a4.567 4.567 0 1 1 3.501 8.436 4.567 4.567 0 0 1-3.501-8.436ZM124.741 871.962c1.964-.125 4.899-.216 6.476 1.204.974.878 1.426 1.658 1.378 3.004-.055 1.54-1.227 2.811-2.154 3.934-1.995.147-4.234.07-5.878-1.242-1.017-.812-1.619-1.725-1.633-3.068-.018-1.587.879-2.672 1.811-3.832ZM171.553 838.498c1.934-.022 4.257-.213 5.976.833 1 .608 1.708 1.374 1.828 2.591.157 1.582-1.023 3.007-1.879 4.22-1.399.382-3.087.573-4.474.047-1.157-.438-2.063-1.285-2.466-2.467-.69-2.016.058-3.503 1.015-5.224ZM164.617 861.474c1.785 0 3.895-.075 5.421 1.007 1.05.744 1.638 1.644 1.741 2.954.121 1.539-1.017 2.983-1.826 4.195-1.957.015-4.024-.165-5.657-1.36-1.001-.732-1.59-1.715-1.668-2.977-.095-1.529 1.074-2.743 1.989-3.819ZM141.209 837.239a4.303 4.303 0 1 1 1.967 8.379 4.303 4.303 0 0 1-1.967-8.379ZM247.44 754.3c1.474.107 3.041.161 4.393.811 1.162.559 2.121 1.402 2.452 2.698.517 2.024-.6 3.569-1.606 5.196-.998.001-2.042.019-3.001-.286-1.426-.455-2.664-1.326-3.198-2.781-.787-2.144.054-3.724.96-5.638ZM141.977 891.906c1.653.126 3.687.204 5.05 1.278.988.778 1.411 1.714 1.335 2.967-.097 1.618-1.603 2.938-2.654 4.035-1.603.005-3.492-.12-4.743-1.264-.915-.837-1.301-1.901-1.246-3.124.072-1.597 1.26-2.772 2.258-3.892ZM252.842 781.763a4.08 4.08 0 1 1 3.098 7.55 4.08 4.08 0 0 1-3.098-7.55ZM169.972 886.227a3.976 3.976 0 1 1 3.12 7.313 3.976 3.976 0 0 1-3.12-7.313ZM217.429 807.743a3.897 3.897 0 1 1-1.686 6.61 3.896 3.896 0 0 1 1.686-6.61ZM226.842 779.712a3.889 3.889 0 1 1 3.138 7.093 3.889 3.889 0 0 1-3.138-7.093ZM113.909 904.737a2.58 2.58 0 1 1 2.225 4.656 2.58 2.58 0 0 1-2.225-4.656Z"/><path fill="#65BBAC" d="M524.744 351.325c7.802 4.646 17.054 7.251 25.463 10.644 11.758 4.745 23.35 10.028 34.977 15.091-7.228 14.117-14.996 29.852-15.719 45.918-10.795 3.36-21.101 6.866-30.469 13.414-17.101 11.951-23.713 28.109-27.212 48.01-17.189 2.236-32.259 7.43-48.388 13.363-9.106 3.287-18.133 5.538-27.704 6.952 1.734-8.726 2.733-17.877 1.363-26.727-2.722-17.583-13.049-31.736-27.114-42.121 17.995-12.608 39.943-15.28 60.063-22.819 30.304-11.354 42.157-33.881 54.74-61.725ZM958.091 567.396c1.312.221 1.782.671 2.577 1.748 5.963 8.08 8.677 27.824 7.6 37.675a32.937 32.937 0 0 1-12.31 22.366c-11.413 9.142-27.015 10.072-40.962 8.594-4.341-.675-8.511-1.896-12.708-3.163.356-6.013 1.803-12.055 3.889-17.692 9.109-24.612 28.829-39.008 51.914-49.528Z"/><path fill="#FB9F5C" d="M201.675 859.734c6.72 3.293 14.136 4.799 20.816 8.168 13.973 7.046 25.761 19.612 30.655 34.579 1.898 5.803 4.287 16.934 1.223 22.533-1.464 2.673-3.698 3.326-6.485 4.071-11.126 1.298-23.312.002-33.565-4.684-8.735-3.991-15.447-10.624-18.738-19.728-5.492-15.193-.511-31.015 6.094-44.939Z"/><path fill="#BD9ABA" d="m427.114 270.472.38.145c2.156 2.546 2.899 11.807 3.52 15.343 2.267 12.914 5.822 31.78-2.679 43.215-8.596 11.564-34.249 13.544-47.75 15.484l-6.608 1.01c-1.496-10.402-.878-21.09 2.938-30.935 8.769-22.625 29.051-34.847 50.199-44.262Z"/><path fill="#65BBAC" d="M789.537 480.509c8.47 6.523 15.362 15.056 20.61 24.329 12.27 21.678 14.421 41.076 7.827 64.851l-11.097-4.949c-5.541-2.508-11.186-4.973-16.526-7.889-9.21-5.031-18.065-12.331-20.998-22.838-5.313-19.03 11.45-38.142 20.184-53.504Z"/><path fill="#BD9ABA" d="M418.647 835.323c4.112.281 8.441 1.513 12.327 2.845 18.832 6.457 33.973 19.514 42.719 37.408 2.469 5.053 9.501 21.886 7.768 26.919-1.222 1.136-1.668.953-3.289 1.079-5.875-.65-11.815-.828-17.707-1.329-13.504-1.146-29.003-4.35-38.059-15.414-12.211-14.918-5.421-34.374-3.759-51.508Z"/><path fill="#65BBAC" d="M777.093 293.057c7.808 6.885 12.738 21.911 14.363 31.87 1.462 8.96.458 17.877-5.049 25.385-8.114 11.064-21.258 15.666-34.317 17.58-3.681.383-7.327.504-11.026.575-4.657-11.78-6.458-23.036-2.491-35.329 5.973-18.507 21.744-31.505 38.52-40.081Z"/><path fill="#FB9F5C" d="M386.875 790.414c1.378.87 1.891 2.974 2.433 4.481 5.268 14.638 13.904 32.471 6.351 47.753-7.929 16.047-28.742 21.799-44.302 27.358l-7.867 2.832c-2.526-9.297-3.206-18.035-1.233-27.528 5.246-25.243 23.957-41.488 44.618-54.896Z"/><path fill="#BD9ABA" d="M239.432 307.754c15.591 7.555 31.645 23.874 37.497 40.343 4.275 12.033 2.994 23.031-2.364 34.432-3.932-.017-7.739-.18-11.646-.639-10.161-1.816-20.326-5.412-28.317-12.14-6.914-5.821-11.371-13.612-12.072-22.702-1.188-15.405 7.359-28.103 16.902-39.294Z"/><path fill="#65BBAC" d="M751.1 272.961c7.868 1.246 16.321 10.441 22.01 15.545-13.822 8.673-27.126 18.25-35.268 32.794-8.41 15.026-7.947 29.72-3.31 45.832l-5.396-1.01c-9.231-2.315-17.608-6.265-25.595-11.399a58.635 58.635 0 0 1 1.887-36.904c8.207-20.781 25.558-36.025 45.672-44.858Z"/><path fill="#F67359" d="M74.832 838.372c.93.241 1.613.523 2.464.994 11.146 6.162 20.381 19.506 23.698 31.647 4.669 17.084-.198 34.081-8.776 49.023-3.074-.754-6.045-1.929-9.02-3.002-8.552-3.94-16.521-8.934-22.426-16.407-6.554-8.295-9.669-18.394-8.293-28.925 1.915-14.651 11.142-24.598 22.353-33.33ZM740.623 691.707c3.328-.389 6.833-.2 10.185-.203 2.129 8.956 1.314 19.666-1.515 28.38-3.143 9.684-9.413 19.225-18.741 23.873-11.163 5.562-23.867 3.334-35.184-.475-6.578-2.79-11.605-6.096-16.84-10.962 2.333-5.785 5.19-11.093 9.145-15.938 13.396-16.413 32.514-22.715 52.95-24.675Z"/><path fill="#BD9ABA" d="M607.365 851.945c.226.06.458.1.677.18 5.902 2.135 13.868 16.481 16.144 22.27 3.573 9.089 4.199 19.858.115 28.888-5.872 12.983-18.657 19.97-31.348 24.836a426.705 426.705 0 0 1-13.878 2.504c-4.722-13.439-5.507-25.855-1.357-39.609 5.069-16.802 14.046-30.613 29.647-39.069Z"/><path fill="#65BBAC" d="m581.088 259.755 4.633 1.566c21.351 7.348 39.777 20.949 49.75 41.687 2.37 4.93 8.231 21.039 6.25 26.026-.462 1.163-.697 1.158-1.785 1.603-18.013-3.992-42.423-2.804-55.454-18.194-11.2-13.227-4.572-36.984-3.394-52.688Z"/><path fill="#F67359" d="M620.011 547.801c.116.053.24.092.348.16 5.187 3.302 9.876 20.217 11.301 26.051 5.943 24.312-1.021 45.064-13.61 65.856l-9.094-8.876c-9.612-9.863-21.803-22.352-22.417-37.04-.806-19.3 21.586-33.587 33.472-46.151Z"/><path fill="#65BBAC" d="M717.256 257.037c9.517 3.6 18.94 7.442 28.261 11.522-12.219 8.356-24.791 16.334-34.083 28.101-11.981 15.171-17.056 32.051-14.815 51.239-.071 1.195.129 1.565-.661 2.514-8.275-2.586-16.541-7.164-24.461-10.758-.476-9.924-.483-19.867 2.036-29.546 6.13-23.548 23.23-41.092 43.723-53.072Z"/><path fill="#E2E1D6" d="M796.094 638.628c8.049 3.201 16.159 6.429 23.945 10.23 21.063 10.28 35.036 24.885 42.578 47.343.828 2.466 1.79 5.573.584 7.985-8.683 1.625-17.811 2.187-26.564.791-12.064-1.924-21.777-8.754-28.874-18.546-10.192-14.062-14.306-30.632-11.669-47.803ZM181.341 432.716l.809-.038c27.456-1.222 44.845 14.377 63.691 31.665-9.269 5.567-18.069 9.532-28.652 11.804a57.564 57.564 0 0 1-25.798-2.406c-16.39-5.495-31.682-18.69-39.309-34.23 9.546-3.89 18.998-5.963 29.259-6.795ZM757.836 577.197c20.87-2.431 37.958 15.631 54.774 25.115-9.843 10.857-23.265 16.035-37.494 18.044-.213.021-.425.049-.638.065-21.221 1.623-39.725-11.587-54.578-25.179 10.636-9.439 23.707-16.417 37.936-18.045Z"/><path fill="#65BBAC" d="M670.054 228.706c1.715-.205 3.54-.158 5.272-.229l11.946 12.725c-4.119 1.742-8.2 3.501-12.106 5.693-20.436 11.466-29.995 28.961-36.184 50.83-3.264-4.962-6.546-9.706-10.339-14.289-8.661-11.014-19.934-18.891-32.7-24.395 21.778-18.253 45.991-27.524 74.111-30.335Z"/><path fill="#E2E1D6" d="M295.551 603.154c4.685-.871 9.897.324 14.535 1.062.327 1.304.603 2.621.829 3.947 1.942 11.18-1.251 22.571-7.796 31.728-9.768 13.666-24.847 20.425-41.007 23.061-5.229.688-10.489.545-15.751.533 1.489-13.371 4.085-25.772 12.028-36.949 9.039-12.718 21.803-20.776 37.162-23.382ZM288.187 507.667c4.16 2.158 8.277 5.435 11.835 8.487 12.387 10.628 22.218 24.639 23.403 41.344.907 12.778-3.524 22.921-11.785 32.416l-3.893 3.332a54.706 54.706 0 0 1-26.082-31.599c-5.844-18.376-2.151-37.193 6.522-53.98ZM204.646 551.696c7.015-.495 13.781.095 20.582 1.936 17.606 4.765 29.851 16.294 38.736 31.844-6.987 6.295-15.155 10.357-24.405 11.987-6.966.904-13.75.24-20.458-1.857-18.848-5.891-31.32-21.325-40.225-38.216 8.504-2.744 16.888-4.667 25.77-5.694ZM564.406 95.673c4.085-.38 8.041-.31 12.137-.14-.986 12.982-2.209 26.835-9.044 38.26-9.305 15.552-27.473 20.132-43.896 24.255-3.422 1-6.932 1.633-10.426 2.328 3.459-15.176 4.037-30.479 13.49-43.671 9.054-12.635 22.79-18.594 37.739-21.032ZM720.678 405.206c3.783-.472 7.945-.478 11.761-.336 24.03.889 37.548 14.07 52.939 30.84-8.377 7.383-19.047 11.068-30.036 12.089-24.889 2.845-46.546-23.005-65.015-36.756 10.04-2.802 19.929-4.939 30.351-5.837ZM456.638 118.111c4.344 1.793 8.446 3.783 12.412 6.317 15.178 9.698 26.418 23.91 30.256 41.659 1.293 5.978 4.284 28.347.751 33.008-.461.607-.871.394-1.561.408-16.047-5.624-31.294-15.781-39.577-31.011-8.797-16.175-7.316-33.299-2.281-50.381Z"/><path fill="#65BBAC" d="M692.068 245.427c4.631.69 13.474 6.644 17.905 9.121-21.123 14.522-39.355 36.044-43.473 61.963-.769 4.841-.061 15.851-1.454 19.282-.369.909-.464.737-1.295 1.087-5.373-1.712-10.83-3.173-16.257-4.702.197-18.375-6.888-28.514.797-47.218 8.486-20.655 23.873-31.125 43.777-39.533Z"/><path fill="#E2E1D6" d="M272.096 389.825c2.583 1.003 4.876 2.685 6.898 4.555a52.52 52.52 0 0 1 16.551 37.071c.413 16.514-6.462 28.573-17.537 40.246-.464.314-.967.443-1.493.626-1.211-.558-2.018-1.149-2.963-2.102-10.553-10.645-17.832-29.129-17.808-44.083.023-14.535 6.278-26.214 16.352-36.313Z"/><path fill="#65BBAC" d="M651.561 201.292c1.872-.173 3.772-.218 5.649-.32 4.866 7.207 8.967 15.033 13.593 22.419-29.402.68-54.024 12.606-76.969 30.159l-3.618 2.886-9.128-2.05-2.366-18.692c17.58-19.927 46.83-31.88 72.839-34.402Z"/><path fill="#65BBAC" d="M643.467 171.64c4.083 4.762 8.141 17.509 10.751 23.806-28.306.36-54.15 14.691-75.531 32.162l-.764.569-.847-.377c-3.732-5.85-6.075-15.95-8.373-22.76 20.256-17.852 49.324-26.061 74.764-33.4Z"/><path fill="#F67359" d="M408.288 819.544c.162-.012.325-.028.488-.036 1.495-.076 2.451-.206 3.597.831 3.168 8.517-1.64 26.449-3.342 35.768a109.952 109.952 0 0 0-21.896 17.615c-12.768 13.225-16.851 23.775-16.509 42.048-9.364-4.969-18.425-10.502-27.534-15.917-6.76-3.72-13.769-7.05-20.667-10.508 22.421-13.536 54.258-16.085 72.611-35.237 6.414-6.693 10.512-16.223 10.451-25.561-.017-2.45-.815-4.774-.868-7.244.898-1.174 2.314-1.367 3.669-1.759Z"/><path fill="#F67359" d="M407.254 864.354c1.991 1.206 2.766 9.864 3.566 12.608 3.655 12.536 12.16 19.407 23.229 25.377-8.053 10.7-17.931 16.168-30.895 19.097-8.988.845-16.612-.129-25.171-2.97-1.121-4.402-1.829-8.71-1.412-13.258 1.644-17.9 17.842-30.346 30.683-40.854Z"/><path fill="#E2E1D6" d="m567.997 429.563.524.27c2.73 4.253 2.362 15.2 2.242 20.054-.243 9.77-3.294 18.673-10.562 25.471-10.517 9.835-25.405 9.153-38.826 8.744-.422.001-1.238.027-1.632-.071-1.089-.27-1.632-1.187-1.938-2.2-1.444-4.783 3.533-15.055 5.802-19.357 9.995-18.947 24.644-26.805 44.39-32.911ZM405.212 439.346c7.146 3.461 13.384 11.267 17.597 17.802 9.483 14.709 10.579 30.682 6.891 47.45-3.919-.325-7.739-1.415-11.498-2.509-7.936-2.566-15.889-6.957-21.437-13.287-5.329-6.08-7.947-13.693-7.352-21.791.844-11.492 7.291-20.398 15.799-27.665Z"/><path d="M583.264 674.324c.807.179 1.577.337 2.344.654.759.313.94 1.505 1.228 2.26-.099-.006-.199-.002-.297-.018-1.454-.232-2.399-1.827-3.275-2.896Z"/><path fill="#877595" d="M362.649 185.795c26.453 4.693 51.703 11.797 76.281 22.694-1.257 4.27-2.358 9.046-4.323 13.035-.662 1.343-.937 1.997-2.364 2.511-25.333-14.603-46.547-22.706-76.412-19.917a563.184 563.184 0 0 0 6.818-18.323Z"/><path fill="#BD9ABA" d="M395.623 159.772c9.237 3.025 18.646 5.628 27.913 8.598-2.078 8.05-4.858 15.914-7.495 23.793l-.329.425c-3.602 1.261-21.964-5.575-26.528-7.018 1.711-8.82 3.52-17.287 6.439-25.798Z"/><path fill="#65BBAC" d="M607.26 152.058c4.217 6.439 6.852 14.447 9.781 21.57-8.8 3.699-17.669 8.589-26.871 11.124-4.556-6.494-7.741-13.687-10.976-20.888 9.159-4.291 18.682-8.042 28.066-11.806Z"/><path fill="#F67359" d="M342.694 690.803c9.497 2.682 19.441 4.326 29.118 6.268-1.416 7.091-2.717 14.191-4.649 21.164-5.049.769-22.216-3.402-28.117-4.5 1.513-7.586 2.041-15.336 3.648-22.932Z"/><path fill="#BD9ABA" d="M427.737 169.683c7.716 2.235 15.344 5.222 22.863 8.048a156.792 156.792 0 0 1-8.594 24.862c-2.89.733-18.508-6.491-22.316-8.057 3.096-8.061 5.406-16.62 8.047-24.853Z"/><path fill="#FB9F5C" d="M445.097 721.558c4.15 3.713 5.706 17.362 6.683 23.012-4.953 2.082-17.863 8.598-22.949 7.708l-8.8-21.163c8.189-3.523 16.706-6.461 25.066-9.557Z"/><path fill="#65BBAC" d="M835.844 390.288c3.875-.274 7.79-.294 11.674-.406.044 7.85-.71 15.776-1.195 23.613-5.001-.005-9.998.253-14.993.466l-10.843.145a352.362 352.362 0 0 0-.528-23.349l15.885-.469ZM575.091 165.416c2.388 1.346 9.356 17.926 11.125 21.534-6.985 3.706-13.62 8.173-20.359 12.311-3.782-7.907-8.333-15.582-12.391-23.363a2173.645 2173.645 0 0 0 21.625-10.482Z"/><path fill="#BD9ABA" d="M369.424 152.775c7.257 2.169 14.673 3.61 21.857 6.077-2.875 8.5-4.696 17.073-6.495 25.846-7.035-2.202-14.315-3.563-21.534-5.005 1.555-9.123 3.817-17.974 6.172-26.918Z"/><path fill="#F67359" d="M687.654 473.146c7.537 2.638 15.015 5.852 22.32 9.086-2.592 5.272-6.757 19.006-9.156 22.288-7.902-2.697-15.598-5.985-23.379-9.01a998.676 998.676 0 0 1 10.215-22.364ZM313.607 685.937c8.44.352 16.92 2.398 25.139 4.274-1.522 7.286-1.898 14.782-2.852 22.158l-.316.349c-4.167 1.194-18.623-2.141-23.688-2.915.396-7.967.969-15.924 1.717-23.866Z"/><path fill="#FB9F5C" d="M415.539 732.524c3.564 3.327 7.159 17.124 8.881 22.119a626.096 626.096 0 0 0-22.538 8.712c-2.317-1.308-7.397-17.733-8.719-21.446 7.225-3.638 14.845-6.454 22.376-9.385Z"/><path fill="#F67359" d="M714.332 484.186a1151.437 1151.437 0 0 1 22.792 8.603c-2.642 7.191-6.008 14.107-9.222 21.056-6.914.179-16.038-4.571-22.38-7.03 2.72-7.65 5.689-15.132 8.81-22.629Z"/><path fill="#FB9F5C" d="M469.579 713.536c.57-.012 1.081-.157 1.577.191 2.985 2.096 6.293 17.735 7.313 21.572a532.184 532.184 0 0 0-20.879 7.157c-.934.273-.999.263-2.019.017-3.338-4.644-4.985-16.57-6.435-22.504 6.846-2.006 13.637-4.289 20.443-6.433Z"/><path fill="#65BBAC" d="M632.447 142.55c3.478 2.383 7.863 18.878 9.469 23.574a1503.77 1503.77 0 0 0-21.198 6.24c-3.887-6.581-6.197-14.951-9.166-22.058a437.264 437.264 0 0 1 20.895-7.756ZM870.492 387.709c.096-.016.191-.04.288-.048 1.535-.127 2.046-.218 3.291.697 3.226 6.071.789 16.288.38 22.96-5.426 1.385-11.254 1.442-16.826 1.754-1.969.147-3.964.119-5.939.149-.313-7.922.601-15.868.818-23.793 5.986-.64 11.997-1.083 17.988-1.719Z"/><path fill="#F67359" d="M375.178 697.448c6.418 1.52 13.433 2.058 19.67 3.917 1.861.555 3.383 1.359 4.229 3.217 2.033 4.463-2.927 14.379-4.637 18.766-5.709.724-17.674-2.937-23.857-4.299 2.119-7.041 3.289-14.377 4.595-21.601ZM661.292 462.044a244.925 244.925 0 0 0 21.58 8.454l-9.354 21.324-.787.491c-6.23-.587-13.71-5.012-19.229-7.865 2.904-7.32 5.108-14.985 7.79-22.404Z"/><path fill="#65BBAC" d="M811.934 391.236c1.218-.016 2.291-.17 3.333.571 1.218 7.124.641 15.233.671 22.467-6.543.234-13.119.18-19.667.248-1.967-7.522-3.094-15.356-4.345-23.021 6.67-.022 13.34-.111 20.008-.265ZM556.178 338.162c6.131 2.47 12.324 4.943 18.261 7.85-1.921 5.487-3.61 12.48-7.209 17.082-6.206-3.261-13.071-5.69-19.525-8.467 2.984-5.398 5.689-10.962 8.473-16.465ZM578.578 347.137c6.046 2.71 12.386 4.956 18.558 7.378-2.476 5.491-5.305 10.875-7.965 16.283l-.51.368c-4.55.781-12.869-4.332-17.043-6.401a913.271 913.271 0 0 1 6.96-17.628ZM533.908 328.432c5.914 2.915 12.051 5.331 18.148 7.831-2.101 5.408-4.961 10.586-7.606 15.744l-.699.475c-4.675.196-12.048-3.95-16.425-5.749a1771.621 1771.621 0 0 1 6.582-18.301Z"/><path fill="#F67359" d="M402.98 787.802c3.314 3.709 7.862 19.385 8.005 24.497-.712.963-1.731.841-2.877 1.051-1.415.267-2.685.519-4.137.405-3.101-1.817-3.662-7.413-4.769-10.742 1.909-4.908 2.836-10.051 3.778-15.211Z"/><path fill="#E2E1D6" d="M392.633 759.321c2.679 2.701 3.749 8.631 4.836 12.293l-2.89 3.068c-.868.909-.823 1.016-2.057 1.123-2.294-3.258-.403-12.744.111-16.484ZM396.983 778.893c.147.147.218.208.332.449.932 1.98-.454 12.462-1.133 14.877l-.72-.329c-1.029-3.603-1.775-7.127-2.355-10.829l3.876-4.168Z"/></svg>