<svg xmlns="http://www.w3.org/2000/svg" width="1024" height="1024"><path fill="#282223" d="M702.854 111.697a9.748 9.748 0 0 1 1.854-.124c2.913.06 4.946.614 6.947 2.848 5.006 5.585 6.451 32.38 8.208 40.965 2.881 14.079 9.01 27.467 8.697 42.101-.381 17.769-10.196 31.035-26.908 36.961-6.908 2.449-14.225 3.649-21.188 5.953-9.24 3.056-20.245 8.624-27.234 15.484-.159.156-.314.315-.472.473-1.25 11.69.604 23.659 6.92 33.723 7.669 12.218 19.14 18.318 32.876 21.402 9.76-14.672 23.362-27.249 35.843-39.567 7.233-7.139 14.625-14.285 20.411-22.695a55.737 55.737 0 0 0 7.104-14.408c.938-2.89 1.752-5.896 2.293-8.886.606-3.353-.036-10.396 2.826-12.637.655-.513.82-.336 1.58-.278.922.656 1.372 1.27 1.805 2.297 1.21 2.872-.131 7.475-.692 10.543-1.267 6.932-2.861 13.617-5.914 19.999-6.54 13.674-17.037 25.077-26.581 36.686-9.857 11.99-19.72 23.967-28.764 36.592a202.298 202.298 0 0 0-23.024 41.504c-6.184 15.352-11.775 36.121-4.58 52.107 1.369 3.041 3.551 6.112 6.809 7.286 3.288 1.186 6.467-.026 9.346-1.707 4.513-2.635 8.331-6.611 12.257-10.031 3.472-3.022 7.165-5.824 10.873-8.551 19.286-14.184 45.221-30.285 66.902-40.357-2.105-6.238-4.108-12.384-5.203-18.891 9.893-5.767 24.96-9.436 36.047-14.189 9.673-4.147 18.579-10.084 28.386-13.834 2.896-1.108 6.37-2.41 9.504-1.944 8.822 1.314 13.042 29.004 16.196 36.702a56.19 56.19 0 0 0 12.305 18.692c12.185 12.057 29.217 16.743 44.282 24.006 8.751 4.219 17.231 9.779 24.885 15.719 6.015 4.668 11.878 9.817 16.158 16.177 6.414 9.529 9.819 21.726 7.545 33.148-1.914 9.619-8.335 16.924-16.367 22.183-29.619 19.392-63.971-10.826-92.468-18.733-14.116-3.917-28.654-1.993-42.793-5.043-13.34-2.878-22.242-11.36-29.468-22.55a71.86 71.86 0 0 1-20.283 3.328c-14.581.263-32.935-3.582-43.818-14.005-13.842 16.575-26.309 33.682-30.775 55.297-8.536 41.307 6.22 103.512 10.778 147.014 3.075 29.339 4.944 59.058 3.099 88.541-1.18 18.875-3.952 37.364-7.146 55.978 4.241-2.342 8.462-4.417 12.985-6.161l-.191-.676c-1.409-5.105-2.48-10.356.437-15.192 7.073-11.724 34.925-13.889 47.237-17.9 8.932-2.91 17.089-7.374 26.272-9.674 2.833 1.246 5.134 2.342 6.736 5.13 2.303 4.008 3.005 9.311 4.148 13.755 4.359 16.946 9.063 32.947 21.357 45.981 5.404 1.229 10.924 2.009 16.281 3.438 8.946 2.387 17.167 6.3 25.366 10.502 2.305-2.807 4.642-5.052 7.673-7.059 6.983-4.623 15.669-6.82 23.943-4.923 5.23 1.199 9.655 4.179 12.353 8.867 6.44 11.192 2.809 26.179-.227 37.849 10.775-5.873 22.374-13.77 35.23-11.966 5.597.786 11.463 3.423 14.774 8.17 2.043 2.931 2.765 6.394 2.138 9.9-2.064 11.535-14.38 18.717-23.231 24.686 9.423.395 22.661-.174 30.806 5.383 2.45 1.671 4.262 4.203 4.661 7.185.356 2.665-.902 5.19-2.543 7.207-7.516 9.241-24.348 13.397-35.552 16.33-52.809 13.821-108.178 9.537-160.942-2.178-36.418-8.086-61.755-16.568-100.109-13.01-9.636 9.371-18.523 14.603-31.659 17.452-2.494 9.636-6.206 18.813-13.119 26.162-14.606 15.527-35.155 16.334-53.358 6.846-10.045-5.235-18.898-12.514-28.741-18.121a116.697 116.697 0 0 0-32.466-12.754c-24.321-5.451-50.17-4.555-74.953-5.26-15.089-.429-30.288-1.765-45.379-1.207-15.118 10.08-27.929 20.991-46.639 23.41-12.159 1.572-26.064.76-36.069-7.079-8.85-6.933-12.067-16.487-13.307-27.31-9.281 10.208-19.599 18.224-33.625 20.285-13.408 1.97-23.974-1.699-34.692-9.575-9.189 2.483-18.584 3.623-28.044 4.449-34.922 3.049-114.117 8.179-141.691-15.328-4.724-4.026-8.24-9.166-8.625-15.525-.443-7.309 2.966-14.537 7.882-19.795 11.873-12.696 31.325-16.053 47.854-16.738-5.47-6.684-11.414-12.187-13.703-20.858-1.696-6.423-1.36-13.297 2.197-19.06a20.054 20.054 0 0 1 12.752-9.127c12.915-2.97 23.502 3.873 34.053 10.183-3.06-9.2-5.284-18.959-1.978-28.439 1.708-4.896 4.972-9.783 9.849-11.947 5.336-2.368 11.012-1.349 16.238.678 6.013 3.854 9.771 9 13.819 14.731.888-10.651 1.753-22.313 9.745-30.353 3.368-3.388 7.853-5.553 12.684-5.467 4.882.086 9.19 2.574 12.407 6.138 8.538 9.462 8.108 24.546 7.672 36.465 7.286-6.034 15.63-12.442 25.129-14.315 5.417-1.068 11.723-.781 16.325 2.594 5.131 3.762 6.204 9.426 7.241 15.271 9.44-17.058 9.097-25.711 6.225-44.445-.542-3.539-1.508-7.554-.694-11.101.246-1.069.501-1.709 1.525-2.24 4.671-2.424 64.48-8.29 74.147-8.61 2.126-.071 4.633-.061 6.649.666 1.86.671 2.731 2.934 3.318 4.678 1.798 5.335 2.2 11.19 3.765 16.619 3.072 10.655 7.832 20.92 12.148 31.106 2.311 5.456 4.374 11.407 7.247 16.568.072.13.147.258.221.387 1.712-5.845 5.678-35.493 7.374-37.53 2.444-1.172 4.565-1.056 7.17-.414 7.848 1.935 16.391 6.771 24.813 9.297 17.562 5.267 35.712 8.666 53.329 13.881 1.831-9.894 4.575-21.394 12.469-28.337 3.953-3.478 8.826-5.194 14.09-4.632 8.778.938 14.535 7.511 19.58 14.026 1.315-5.9 2.774-11.814 6.233-16.877 3.014-4.411 7.258-7.692 12.644-8.479 4.81-.702 9.454.795 13.248 3.764 11.474 8.977 12.904 27.796 14.526 41.149 3.091-3.484 6.267-6.932 10.062-9.667 7.289-5.253 15.226-6.158 23.853-4.727 7.53-63.28 12.306-129.703-8.406-191.206-5.202-15.444-12.249-29.271-27.507-36.713-14.822-7.229-30.402-5.151-45.519.009 6.926 18.721 21.489 33.169 27.762 52.001 3.309 9.938 4.118 21.446-.806 31.003-8.293 16.1-35.188 25.482-48.77 41.695-15.329 18.3-21.141 48.056-45.972 56.97-.53.19-1.064.368-1.602.533-11.391 3.489-25.093 1.712-35.506-3.93-9.501-5.147-17.395-14.205-20.393-24.669-5.908-20.62 3.714-42.662 16.807-58.329 8.567-10.252 18.814-19.011 23.536-31.902a48.566 48.566 0 0 0 2.797-19.612c-.327-5.345-1.366-10.661-2.579-15.867-1.273-5.459-9.091-28.582-6.427-32.563 2.685-4.014 31.195-7.497 37.901-8.811 5.761-1.13 11.582-2.402 17.21-4.067 9.15-2.706 17.856-5.913 27.368-7.142 3.69 6.005 4.807 12.728 6.551 19.472a88.225 88.225 0 0 1 12.516-4.127c16.735-4.018 32.167-.554 46.696 8.267a308.745 308.745 0 0 0-57.171-75.533c-5.101-4.845-10.58-10.11-16.814-13.43-8.264-4.402-18.243-6.317-27.557-5.964-36.347 1.38-35.986 31.486-58.806 50.394-3.596 2.98-7.079 5.534-11.659 6.807-2.381.662-5.396 1.133-7.651-.089l-.274-1.01c.286-.472.318-.568.638-.961 2.417-2.965 7.379-4.461 10.634-6.418a42.956 42.956 0 0 0 9.005-7.157c11.292-11.704 16.481-28.119 29.481-38.327l.477-.369.481-.36c13.609-10.047 29.327-8.67 45.125-6.377-16.56-14.069-39.759-29.725-60.015-37.594-10.382 3.459-20.336 7.533-29.764 13.149-10.264 6.114-19.934 14.371-31.535 17.808-11.552 3.423-24.503 2.538-35.097-3.382-8.722-4.875-14.591-11.437-17.218-21.167-2.375-8.798-1.413-17.44 1.933-25.841 15.451-38.785 60.442-41.708 83.647-71.935 9.324-12.146 11.445-26.714 14.249-41.309.716-3.729 1.221-8.372 3.247-11.639.949-1.532 2.265-2.131 3.961-2.504 3.855-.848 8.31.158 12.104.981 11.393 2.472 22.499 6.88 33.763 9.954 5.884 1.605 28.038 5.143 31.361 7.806.926.742 1.49 1.467 1.664 2.665.766 5.267-5.609 19.589-6.569 26.417-2.823 20.096 1.632 41.416-3.463 61.025-2.404 9.254-7.216 16.509-13.165 23.857 12.739 11.352 28.286 28.609 44.535 33.794 5.379 1.716 11.029 1.49 16.042-1.248 4.492-2.454 8.762-6.941 10.277-11.905 1.931-6.325 2.225-13.487 2.068-20.05-.577-24.112-9.232-45.455-21.253-65.99-4.068-6.949-9.59-13.36-13.129-20.554-.931-1.893-1.535-3.558-.791-5.593l1.197-.535c1.671.125 2.773.857 3.971 1.984 4.54 4.267 7.953 11.428 11.136 16.758 16.301 27.292 23.925 48.346 25.622 80.288 3.352-3.132 6.624-6.3 9.557-9.836 19.353-23.342 20.402-54.181 17.674-82.954-6.987-.435-14.238-2.031-20.465-5.303-7.984-4.195-13.377-10.799-16.05-19.413-2.612-8.42-1.944-17.824.617-26.175 5.828-18.996 20.13-32.541 36.432-43.068 11.262-7.272 24.099-14.283 30.826-26.425 9.736-17.573 3.64-42.959 9.453-53.877 5.615-3.886 37.519-.287 46.349-.496 8.267-.197 16.664-1.27 24.862-2.322ZM596.719 288.809c2.232 31.483.974 64.158-20.867 89.344-3.802 4.384-8.111 8.367-12.252 12.428-3.013 19.726 2.608 43.548 14.35 59.691 7.073 9.723 18.069 19.751 29.714 23.491 7.682 3.273 17.597 5.412 25.568 2.08 6.389-2.671 10.705-8.224 13.156-14.538 5.197-13.392 4.345-29.842 4.761-44.003 1.124-38.286 15.385-69.414 36.175-100.828-13.734-3.26-25.21-11.398-32.644-23.451a55.873 55.873 0 0 1-6.584-15.435c-.828-3.25-1.213-13.923-2.694-15.691-17.465 13.391-26.522 21.476-48.683 26.912Zm57.922-41.235c3.536-2.066 7.053-4.181 10.661-6.12-.882-17.577 3.016-33.485 15.028-46.803 9.789-10.854 23.546-19.668 36.53-26.311-.937-4.782-3.727-24.919-5.883-27.348l-.685.065c-28.944 7.802-46.12 8.716-75.764 4.904-3.47 20.277-8.369 29.767-23.715 43.596 13.251 8.202 24.385 17.635 33.065 30.706 5.498 8.229 9.945 17.307 10.763 27.311Zm133.348 176.697c-.712-3.676-1.246-7.322-1.487-11.061-.34-5.263-.18-32.188-2.728-34.237-19.619 10.204-37.712 21.643-53.426 37.375 3.623 1.782 7.073 4.086 10.756 5.675 15.442 6.675 30.838 7.726 46.885 2.248Z"/><path fill="#6F594D" d="m713.133 295.351.434.802c-13.901 12.493-35.244 49.409-41.733 67.068-5.828 15.861-9.904 36.571-2.344 52.584 2.05 4.343 5.225 8.345 9.934 9.896 4.248 1.399 9.562.953 13.515-1.107 6.87-3.58 12.356-9.332 18.207-14.304a282.086 282.086 0 0 1 16.87-13.236c17.145-12.452 36.384-21.589 55.253-31.075.249 1.997.61 3.989.925 5.977-9.861 3.648-18.955 9.639-27.669 15.438-8.625 5.739-17.232 11.689-24.942 18.636-20.633 18.589-38.842 45.861-43.652 73.459-6.392 36.678 3.391 80.153 8.408 116.882 10.708 78.399 10.238 133.414-9.25 210.934a933.525 933.525 0 0 1-12.405 43.893c-2.609 8.627-5.02 19.041-9.516 26.889-5.361 9.359-14.743 13.039-24.611 15.724a47.692 47.692 0 0 0-.622-2.553c-6.751-25.439-30.583-40.763-51.952-53.165 3.751-8.771 7.317-17.628 10.041-26.78 15.073-50.655 21.429-127.337 16.723-180.141a329.777 329.777 0 0 0-12.852-66.738c-13.819-45.51-42.348-87.274-76.595-119.91-7.362-7.016-15.31-13.458-23.19-19.879-17.998-14.667-36.378-27.551-56.877-38.468 11.446-.832 22.44-2.32 32.957-7.17 16.868 11.918 32.409 34.699 54.507 35.998 9.998.588 16.998-3.63 24.157-9.985 1.471 21.153 8.042 40.997 22.901 56.57 11.345 11.891 26.374 21.501 43.271 21.743 37.779.543 32.942-47.223 34.812-72.854a176.132 176.132 0 0 1 6.181-34.454c6.595-23.178 19.3-42.788 33.587-61.869 4.863-6.496 9.716-13.116 15.527-18.805Z"/><path fill="#ADC68F" d="M199.406 738.979c.169.01.339.009.508.028 3.715.404 6.94 2.394 9.287 5.26 6.953 8.488 6.992 24.723 4.923 34.911-.925 4.555-3.144 8.844-3.512 13.522-.151 1.911-.209 3.651 1.086 5.107 4.434-.823 8.875-12.08 12.162-16.009a47.059 47.059 0 0 1 11.723-10.004c5.289-3.174 13.186-6.567 19.364-4.85 2.663.741 4.781 2.496 6.052 4.947 8.437 16.261-17.36 39.186-26.227 51.155-6.069 8.193-11.456 17.288-14.784 26.96-5.015 14.577-3.623 27.14 3.093 40.834-48.742 5.377-91.666 9.554-140.125-1.141-.853-.239-1.704-.486-2.552-.74-8.44-2.541-19.138-6.378-23.4-14.823-2.079-4.117-2.023-9.319-.39-13.578 5.098-13.308 24.804-18.975 37.586-20.226 4.728-.462 16.577.205 19.851-1.88 1.166-.742 1.129-1.337 1.31-2.574-1.71-5.535-8.294-9.74-11.911-14.206-4.343-5.362-8.089-13.026-7.13-20.034.513-3.761 2.282-7.404 5.361-9.713 3.167-2.376 7.223-3.187 11.119-3.064 20.091.637 32.56 22.491 39.232 23.555 1.099-.406 1.159-.376 1.763-1.366.22-5.695-7.327-18.93-9.348-25.223-2.007-6.252-3.325-13.963-.046-20 2.473-4.555 6.621-6.663 11.353-8.148 11.386 3.227 14.939 12.381 20.052 21.928 1.142 2.131 2.317 4.639 4.062 6.348.956.935 1.431 1.178 2.747 1.125 3.52-3.187 1.679-18.936 1.974-23.917.19-3.465.844-6.888 1.946-10.178 2.409-6.984 6.371-10.831 12.871-14.006ZM716.362 768.512c.555.115.318.013.854.39 3.108 2.186 1.326 33.358 1.363 38.67.036 5.111.234 10.31 1.107 15.355 1.856 10.719 7.361 21.454 16.488 27.707 15.783 10.814 36.946 6.514 54.69 11.299 27.044 7.293 51.027 30.17 80.745 24.606 11.375-2.129 21.612-9.201 28.045-18.778 6.483-9.652 6.645-19.577 4.398-30.618 12.425-3.192 24.786-14.96 38.202-12.045 3.371.733 6.39 2.386 8.199 5.409 1.499 2.504 2.03 5.541 1.211 8.365-2.336 8.061-14.127 14.506-21.385 17.483-5.192 2.128-11.064 3.519-15.962 6.227-1.403.775-2.155 1.386-2.611 2.926l.608.939c4.274 2.507 14.687 1.053 20.061 1.003 7.844-.068 17.751.324 25.146 3.136 1.92.73 4.284 1.977 4.916 4.104.444 1.493-.164 2.861-1.046 4.037-5.108 6.815-23.402 11.164-31.714 13.243-56.793 14.202-112.047 7.549-168.402-5.226-28.997-6.574-57.915-15.289-87.928-11.004 2.582-9.505 5.914-18.82 8.797-28.24 7.287-23.803 14.195-47.906 18.068-72.533a490.54 490.54 0 0 1 16.15-6.455Z"/><path fill="#F59E5D" d="m515.685 530.425.293.06c1.797 1.475 3.243 6.111 4.326 8.268 2.911 5.795 6.37 11.227 9.922 16.641-2.681 3.502-5.992 6.413-9.144 9.478-7.856 7.637-14.835 15.592-18.868 25.931-6.07 15.563-3.311 30.875 3.238 45.753-18.28 15.629-27.543 43.205-44.973 61.695.088-12.576-2.212-21.935-10.07-31.918-2.582-3.076-6.033-5.816-9.52-7.806-12.323-7.034-25.821-5.825-38.996-2.225 4.887-15.957 12.857-27.407 23.832-39.747 3.776-4.246 7.773-8.386 11.038-13.049 11.499-16.423 9.735-33.203 6.425-51.941 25.504.14 50.546-8.691 72.497-21.14Z"/><path fill="#51A49D" d="M795.444 750.005c2.019 2.107 2.907 5.693 3.939 8.413 3.581 9.436 7.613 20.055 15.58 26.736 6.453 5.411 15.363 4.998 23.029 7.492a125.512 125.512 0 0 1 50.139 30.325c-3.492.027-6.94.059-10.377.738-9.587 1.894-17.419 7.501-22.763 15.63-8.214 12.494-7.885 25.541-4.969 39.653-8.105-2.192-15.781-5.573-23.351-9.149-12.111-5.56-24.223-10.799-36.895-14.972-2.891-12.589-7.082-25.085-15.572-35.08-12.023-14.155-31.324-20.84-49.352-22.376.22-10.125.3-19.893-1.682-29.887 28.36.314 47.039-6.187 72.274-17.523Z"/><path fill="#E27556" d="M537.303 794.941c2.701 2.806 3.9 9.646 5.266 13.271 2.898 7.686 7.708 15.711 13.872 21.219 6.892 6.159 15.12 9.629 23.483 13.287 16.768 7.336 31.516 15.474 43.213 29.888-13.851 3.853-26.885 9.761-35.052 22.185-7.372 11.216-7.373 22.716-4.711 35.432-4.501-1.538-8.602-3.852-12.736-6.17-16.88-11.344-29.802-19.084-49.136-26.333.029-10.054-.784-19.689-5.264-28.848-7.892-16.136-22.217-25.545-38.796-31.149a211.69 211.69 0 0 0-.417-27.624c21.303-1.735 41.426-4.244 60.278-15.158Z"/><path fill="#A398AD" d="M856.905 343.447c1.798 1.207 4.825 10.636 6.264 13.246a63.908 63.908 0 0 0 6.866 10.047c7.373 8.772 16.814 14.234 26.748 19.601a46.937 46.937 0 0 0-17.695 12.223c-14.008 15.337-17.324 33.19-16.491 53.267-2.695-.477-5.383-1.09-8.066-1.638-.155-7.387-1.362-13.583-3.976-20.486a57.876 57.876 0 0 0-11.322-16.091c-13.364-13.296-29.357-17.244-47.666-17.203-.053-9.91-.587-20.079-2.347-29.839 24.719-1.036 46.261-11.86 67.685-23.127Z"/><path fill="#624E65" d="M358.845 745.086c.909-.057 1.197.006 2.029.28 4.017 5.247 6.775 15.852 9.126 22.309-13.593 4.31-25.666 12.022-33.4 24.241-7.983 12.611-7.355 25.596-4.19 39.662-4.449 3.314-9.073 6.41-13.634 9.569-2.543-11.45-5.984-20.26-14.564-28.533-12.887-10.252-28.137-10.708-43.904-10.344 13.007-16.448 20.682-26.963 23.845-48.307 25.951 1.236 49.537-3.074 74.692-8.877Z"/><path fill="#ADC68F" d="M541.666 729.488c.736-.007 1.472.009 2.207.047 23.809 1.436 15.503 51.83 20.896 58.002 3.77-.359 6.884-11.927 8.757-15.134.962-1.646 2.748-3.336 4.137-4.664 6.927-6.621 14.812-8.368 24.045-8.154-.636 17.595-5.7 35.178-10.582 51.962-3.279 8.145-6.163 16.227-10.072 24.121-3.527-1.33-7.075-2.73-10.422-4.468-16.98-8.815-21.898-24.062-27.294-41.245l2.538-4.676c-.848-4.251-1.772-8.808-3.787-12.68-2.759-5.304-6.608-7.304-11.994-9.135-1.268-6.711-1.31-14.658.779-21.215 1.976-6.2 5.162-9.772 10.792-12.761Z"/><path fill="#624E65" d="M255.159 808.483c14.234-.065 31.347-1.6 43.449 7.379 10.123 7.511 12.709 18.863 14.377 30.681-8.92 9.199-11.274 17.326-17.765 27.83-2.816 4.556-6.225 8.38-9.907 12.25-.909.692-1.07.854-2.191.973-2.688-2.303-2.944-10.536-4.241-14.091a36.925 36.925 0 0 0-7.589-12.521c-11.218-12.149-26.831-14.145-42.46-14.85 5.577-13.872 16.689-26.359 26.327-37.651Z"/><path fill="#F59E5D" d="M604.796 193.963c2.426.173 4.963 1.712 6.954 3.042 20.247 13.514 32.359 29.65 37.252 53.685-12.03 10.502-23.573 20.312-37.684 28.012-.914-3.457-.88-7.097-1.251-10.643a44.607 44.607 0 0 0-9.394-23.098c-8.769-11.277-20.493-15.965-34.323-17.712 9.908-14.834 23.39-24.287 38.446-33.286Z"/><path fill="#FEFEFE" d="M391.362 778.685c26.526 8.84 50.459 17.135 78.62 19.407.389 5.284.453 10.585.572 15.88-9.833 6.71-20.928 10.819-31.158 16.802-8.21 5.339-13.877 11.1-19.182 19.342-8.65-19.735-20.814-33.072-40.777-41.58 5.605-9.552 9.151-19.175 11.925-29.851Z"/><path fill="#A398AD" d="M917.832 395.939c10.619 1.61 21.795 11.885 30.045 18.436-19.455 8.621-32.26 25.606-31.685 47.329.08 3.019 1.666 10.279.361 12.749a326.66 326.66 0 0 1-30.939-14.399c-1.895-9.76-1.697-20.19 1.281-29.716 5.062-16.197 16.228-26.733 30.937-34.399Z"/><path fill="#FEFEFE" d="M347.396 831.392c5.329 1.149 11.31 6.082 15.16 9.767 15.186 14.534 19.64 32.478 19.997 52.886-9.785 5.726-18.267 13.571-28.88 17.794-.352-2.731.071-5.788.161-8.544.22-6.684-.472-12.897-2.72-19.229-5.642-15.89-17.795-25.535-32.62-32.518 8.815-8.202 18.501-14.234 28.902-20.156Z"/><path fill="#E27556" d="M361.241 337.934c6.751.721 13.733 6.693 18.524 11.174 14.245 13.325 20.191 28.513 20.796 47.801-7.157 5.86-15.216 10.426-23.313 14.827-.987-10.962 1.355-15.327-3.71-26.475-6.868-15.114-20.779-22.706-35.596-28.365 7.065-7.565 14.76-13.228 23.299-18.962Z"/><path fill="#624E65" d="M225.805 852.471c13.387.09 26.664 1.305 37.384 10.169 9.781 8.089 11.738 18.203 12.843 30.232l-6.191 3.306c-7.855 2.794-15.95 4.115-24.17 2.083a28.604 28.604 0 0 1-18.005-13.292c-5.946-10.133-4.711-21.618-1.861-32.498Z"/><path fill="#FEFEFE" d="M313.727 856.301c11.284 4.916 21.241 11.367 27.776 22.084 6.73 11.036 7.122 22.711 4.16 35.002l-8.353.501c-8.065-.012-16.015-.78-22.862-5.46-6.225-4.254-9.732-10.961-10.955-18.271-2.187-13.066 2.862-23.445 10.234-33.856Z"/><path fill="#F59E5D" d="M534.371 560.91c1.064 1.03 1.918 2.401 2.673 3.668 6.209 10.42 11.292 25.024 7.967 37.196-3.845 14.072-18.479 21.244-30.106 27.962l-4.459 2.766c-3.939-7.758-6.079-16.539-5.547-25.258 1.189-19.492 15.696-34.039 29.472-46.334Z"/><path fill="#A398AD" d="M952.472 419.38c.178.094.365.174.535.281 6.639 4.187 11.33 16.487 12.42 23.971 1.09 7.487-.78 14.916-5.411 20.925-5.753 7.464-14.024 10.848-23.128 12.021-4.213.34-8.33-.02-12.528-.376-1.653-8.827-2.509-18.334-.139-27.112 3.992-14.783 15.71-22.508 28.251-29.71ZM718.01 174.963c.724.531 1.093 1.335 1.378 2.167 3.548 10.365 4.391 26.85-.926 36.696-8.266 15.311-28.126 16.908-43.025 21.503-.863.256-1.594.501-2.506.484-.57-.01-.531.057-.856-.389-1.877-2.574-.592-6.962-.008-9.779 5.757-27.757 24.137-36.415 45.943-50.682Z"/><path fill="#FEFEFE" d="M470.933 822.561c.233.33.374.478.476.918.469 2.016.194 4.932.119 7.017-.393 10.96-2.399 22.897-9.175 31.854-10.955 14.481-28.469 16.264-45.192 18.543-.153-.166-.219-.396-.313-.602-1.07-2.338 3.184-15.681 4.353-18.755 8.125-21.373 30.407-30.26 49.732-38.975Z"/><path fill="#51A49D" d="M724.598 803.227c9.896.946 20.646 4.363 29.416 9.029 17.501 9.311 23.366 23.324 28.87 41.401-15.181-1.808-35.19-.104-46.779-11.952-9.528-9.743-11.76-25.458-11.507-38.478Z"/><path fill="#F59E5D" d="M490.366 328.656c.713-.132 1.383-.039 2.102.006.652.656.971 1.223 1.129 2.127 1.468 8.382-3.044 24.98-8.021 32.253-10.248 14.972-25.844 14.475-41.967 17.388-1.072.164-1.531.159-2.521-.297-.435-.669-.805-1.259-.947-2.059-1.357-7.671 4.68-20.739 9.026-26.795 10.161-14.162 24.596-19.788 41.199-22.623Z"/><path fill="#51A49D" d="M881.432 829.634c3.187-.362 6.455-.51 9.42.896 3.37 1.598 5.527 4.395 6.741 7.872 2.491 7.133 1.505 16.067-1.803 22.784-4.903 9.956-13.658 15.034-23.8 18.512-4.579.997-9.106.957-13.768.899-1.283-2.958-2.386-6.079-3.052-9.236-2.024-9.598-.583-19.949 4.852-28.219 5.18-7.885 12.431-11.686 21.41-13.508Z"/><path fill="#E27556" d="M416.391 659.689c1.963-.172 4.002-.153 5.967.001 9.225.723 17.606 4.589 23.577 11.754 7.457 8.946 8.223 18.403 7.294 29.563-4.97 1.87-9.165 2.676-14.46 3.024-9.701-.657-18.406-3.61-25.661-10.281-9.286-8.538-11.437-18.771-12.013-30.862 5.058-1.307 10.12-2.476 15.296-3.199ZM625.651 878.547c1.316.191 1.636.446 2.635 1.348 3.641 3.287 4.252 9.631 4.514 14.28.577 10.188-3.638 19.979-10.442 27.445-7.43 8.154-15.943 11.073-26.733 11.53-1.054-.091-2.038-.124-2.983-.664-1.998-1.14-3.188-3.599-3.785-5.722-2.377-8.449-.454-19.927 3.896-27.464 6.651-11.526 20.789-17.326 32.898-20.753Z"/><path fill="#F59E5D" d="M333.865 362.647c11.343 2.208 21.785 8.04 28.926 17.246 7.855 10.128 9.265 21.997 7.634 34.375l-7.31 1.18c-8.166.38-16.54-1.173-23.521-5.579a28.073 28.073 0 0 1-12.75-18.321c-2.118-10.36 1.367-20.288 7.021-28.901Z"/><path fill="#624E65" d="M792.498 403.07c14.221.068 27.388 2.545 38.698 11.747 11.027 8.971 15.385 20.431 16.861 34.239-15.313-.737-32.696.244-44.529-11.275-9.75-9.49-10.841-21.806-11.03-34.711ZM347.096 719.293c2.134-.23 4.312-.293 6.456-.431 1.94 6.521 3.525 13.173 5.226 19.762-21.396 5.163-42.725 10.144-64.92 7.965-3.365-.099-6.748-.433-10.107-.674-1.529-6.625-1.724-13.616-2.166-20.381 22.004-1.344 43.63-3.597 65.511-6.241Z"/><path fill="#A398AD" d="M563.387 233.065c10.426 1.216 20.06 3.572 27.88 11.014 10.419 9.914 12.58 22.908 12.912 36.681l-6.062 1.076c-7.523.815-14.949.399-22-2.577-6.965-2.94-12.714-8.288-15.483-15.411-3.999-10.292-1.416-21.03 2.753-30.783Z"/><path fill="#E27556" d="M406.567 308.363c4.369 1.49 8.723 3.01 12.899 4.987 14.71 6.965 21.181 15.907 26.49 30.912-5.779 8.363-11.057 18.015-11.384 28.426-.084 2.693.542 6.549-.461 9.002-1.021-.453-1.113-1.371-1.542-2.368-10.291-26.522-19.731-41.131-43.464-57.498 6.174-3.977 11.822-8.776 17.462-13.461Z"/><path fill="#C4C3C2" d="M395.643 750.594c10.53 4.478 21.245 8.706 32.307 11.687a1226.635 1226.635 0 0 0 33.063 8.134c3.416.784 10.501 1.306 13.257 2.824.988.544.978.562 1.27 1.693-1.514 2.22-4.843 2.381-6.39 4.431-1.409 1.867-.771 5.376-.605 7.558.107.475.26 1.113.328 1.579.202 1.374.298 1.589-.483 2.656-4.855 1.007-10.136-.625-14.933-1.552-21.728-4.2-39.765-10.612-60.602-17.521 1.39-7.1 2.192-14.284 2.788-21.489Z"/><path fill="#E27556" d="M508.053 508.559c.546-.011.651-.108 1.08.16 2.929 1.827 4.024 12.208 4.672 15.69-22.747 12.298-45.627 19.902-71.695 21.169-3.597-5.228-4.414-14.136-5.657-20.26a664.284 664.284 0 0 0 71.6-16.759Z"/><path fill="#F59E5D" d="M429.195 248.467c14.279.018 27.589 6.727 41.162 10.321 10.045 2.661 20.419 4.381 30.59 6.535-1.874 6.122-3.506 12.333-5.217 18.503l-.453.429c-12.591 2.807-55.033-11.242-69.413-15.292.522-7.024.935-13.817 3.331-20.496Z"/><path fill="#E27556" d="M476.797 844.779c8.672 2.987 17.033 7.071 23.774 13.395 11.149 10.459 14.049 22.936 14.578 37.717-3.022-.73-6.066-1.248-9.129-1.77-8.69-1.228-18.042-2.093-26.044-5.922-8.422-4.03-12.02-10.714-15.017-19.046 5.975-7.645 9.111-15.139 11.838-24.374Z"/><path fill="#624E65" d="M847.5 316.439c.73.032 1.376.062 2.005.502 4.12 2.881 5.168 14.406 6.049 19.158-20.062 12.28-40.086 21.34-63.827 23.677-.93.149-2.152.153-2.927-.43-3.669-2.761-4.258-11.809-5.026-16.137 13.127-3.653 25.965-8.088 38.269-13.982 8.568-4.105 16.773-8.921 25.457-12.788Z"/><path fill="#A398AD" d="M699.777 118.702c2.331-.411 4.946-.274 7.322-.357a256.183 256.183 0 0 1 2.617 15.79c-22.254 6.874-39.967 9.665-63.337 7.079-3.616-.294-7.226-.903-10.819-1.416-.043-6.728-.679-13.416-.64-20.16 10.291-1.153 20.873.446 31.195.75 11.28.332 22.448-.541 33.662-1.686Z"/><path fill="#51A49D" d="M786.868 724.483c.785.024 1.237.126 1.915.588 3.589 2.443 4.947 13.245 6.104 17.41-5.95 2.081-11.7 4.832-17.468 7.369-17.642 7.758-30.172 11.266-49.63 11.129l-6.67-.549c-.717-3.569-1.869-7.729-.569-11.263 3.241-8.811 37.914-14.23 46.775-16.881 6.618-1.98 13.163-5.131 19.543-7.803Z"/><path fill="#E27556" d="M526.294 770.607c2.675-.197 5.287.068 7.432 1.847 3.864 3.205 4.473 8.698 4.933 13.371-14.731 12.983-34.039 14.537-52.73 16.824-3.129.39-6.277.673-9.414.995-.338-6.66-1.106-13.141-2.377-19.689 7.06-1.146 14.13-2.518 21.016-4.472 10.435-2.963 20.477-6.72 31.14-8.876Z"/><path fill="#624E65" d="M372.024 774.011c.082.051.172.09.247.151 4.544 3.704 6.177 15.053 7.022 20.547-6.936 16.037-22.364 24.067-36.994 31.956l-4.011 2.35c-1.772-10.354-1.989-20.917 2.613-30.596 6.287-13.224 17.889-19.648 31.123-24.408Z"/><path fill="#F59E5D" d="M382.345 325.933c.955.42 1.897.868 2.825 1.343 22.498 11.582 34.997 34.495 42.312 57.735-4.953 1.743-9.777 3.65-14.61 5.696l-5.145 2.349a164.62 164.62 0 0 0-1.643-10.092c-4.628-23.062-18.914-37.062-37.825-49.564a1134.11 1134.11 0 0 1 14.086-7.467Z"/><path fill="#E27556" d="M424.292 274.782c21.885 8.005 46.742 14.987 70.157 15.78-.63 4.618-.974 9.272-1.029 13.933-.064 4.062.808 11.567-.272 15.252-.431 1.471-1.653 1.626-2.917 2.185-4.966-3.357-8.646-8.094-13.416-11.653-16.761-12.505-37.098-18.642-57.54-21.606a134.442 134.442 0 0 0 5.017-13.891Z"/><path fill="#F59E5D" d="M416.423 294.106c24.337 3.955 47.003 11.372 65.377 28.477-5.453 2.195-11.069 3.847-16.361 6.45-5.04 2.702-9.42 6.03-13.854 9.626-1.184-2.439-2.359-4.897-3.681-7.265-8.138-14.572-21.773-23.534-37.612-27.939 2.294-2.966 4.191-6.146 6.131-9.349Z"/><path fill="#ADC68F" d="M497.536 741.521c2.831-.153 5.419-.179 8.133.774 9.465 3.326 14.89 12.919 19.029 21.397-7.176 2.098-14.417 4.01-21.623 6.007-7.317 1.719-14.504 4.081-21.691 6.277 1.024-5.924 2.166-11.872 3.962-17.617 2.279-7.285 5.16-13.123 12.19-16.838Z"/><path fill="#FEFEFE" d="M374.774 813.328c1.532.48 3.011 1.06 4.496 1.669 19.596 8.045 28.734 23.913 36.604 42.637-2.684 8.113-4.939 16.385-7.243 24.613l-.888.552-.78-.317c-2.381-5.77-1.372-13.58-2.909-19.779-.841-3.391-2.601-6.84-4.105-9.987-7.042-14.731-17.181-24.98-31.151-33.157l5.976-6.231Z"/><path fill="#FEFEFE" d="M362.224 823.411c8.131 3.254 15.028 8.803 20.801 15.327 12.157 13.741 17.674 29.485 16.525 47.734l-6.43 2.204c-1.086.406-1.818.717-2.985.581-2.536-3.03-1.788-10.767-2.447-14.731-3.35-20.172-16.179-35.223-32.321-46.74l6.857-4.375Z"/><path fill="#ADC68F" d="M884.734 790.584c2.592-.126 5.252-.329 7.81.216 3.814.813 6.981 2.882 8.961 6.275 5.109 8.754 1.505 21.991-.687 31.208l-6.384-7.433c-7.739-8.527-17.604-14.807-26.886-21.5 5.04-5.098 10.338-7.37 17.186-8.766Z"/><path fill="#A398AD" d="M904.45 389.968c2.561.138 4.745 1.094 7.087 2.036-18.892 11.574-33.775 29.002-34.141 52.24-.05 3.177.982 9.587-.59 12.284l-7.061-2.717c-1.176-11.128-1.193-21.371 2.867-31.964 5.984-15.614 16.811-25.212 31.838-31.879Z"/><path fill="#6F594D" d="M412.251 889.445c16.544-3.007 32.263-5.513 47.197-13.827 3.713 6.965 7.72 11.605 13.99 16.392-19.329-.056-38.976-2.927-58.243-1.837l-2.944-.728Z"/><path fill="#453737" d="M415.195 890.173c-2.674.499-5.598.52-8.25-.071l.348-.427c1.626-.219 3.316-.186 4.958-.23l2.944.728ZM713.133 295.351c.869-2.377 3.747-3.988 5.761-5.375-1.704 2.042-3.367 4.387-5.327 6.177l-.434-.802Z"/><path fill="#282223" d="M291.96 454.931c8.574.245 17.824 2.831 26.272 4.382a244.684 244.684 0 0 0 34.504 4.046c3.997.198 14.077-.224 16.573 2.921.189.238.547.918.691 1.279 2.183 5.462.681 25.033 1.041 32.051 1.006 19.603 8.672 38.481 5.276 58.318-6.221 36.329-34.114 31.569-61.269 42.919-14.297 5.976-27.088 15.537-39.695 24.4-9.818 7.59-20.547 12.007-33.088 11.429a44.04 44.04 0 0 1-30.638-14.372c-7.406-8.169-10.655-18.473-10.003-29.418 1.229-20.634 15.399-37.644 32.489-48.053 14.855-9.048 32.016-15.215 41.74-30.638 3.602-5.713 5.944-12.165 7.233-18.779 1.792-9.193 1.141-31.669 6.607-38.252.674-.811 1.483-1.53 2.267-2.233Z"/><path fill="#51A49D" d="M290.798 486.787c26.009 9.737 46.384 11.195 73.613 8.543.752 9.806 2.233 19.707 3.886 29.4-17.453 8.735-34.305 13.554-45.67 31.038-7.583 11.666-9.211 23.643-6.367 37.138-13.299 5.973-25.25 13.939-37.013 22.475-6.475 4.878-12.797 9.384-20.23 12.693.797-3.347 1.444-6.638 1.565-10.086a42.984 42.984 0 0 0-12.062-30.949c-9.464-9.94-20.82-13.245-34.202-13.613 11.243-20.281 32.158-25.808 50.094-38.171 17.789-12.261 22.681-28.113 26.386-48.468Z"/><path fill="#51A49D" d="M368.914 531.51c.565.702.928 1.256 1.188 2.133 3.038 10.231.707 28.75-4.788 37.992-8.591 14.451-27.095 15.149-41.709 18.978l-.525-.17c-.54-.498-.864-.93-1.119-1.627-2.55-6.966-.687-16.986 2.238-23.616 7.979-18.09 27.408-26.903 44.715-33.69ZM210.763 579.44c9.464.309 18.718 1.725 26.886 6.824 8.53 5.325 13.712 13.728 15.934 23.416 1.735 7.564 1.332 13.414-2.876 20.071-5.038 1.883-12.608.773-17.662-.793a36.534 36.534 0 0 1-21.424-18.18c-5.248-10.28-4.266-20.667-.858-31.338ZM294.239 461.339c22.162 6.52 46.848 7.277 69.734 9.178.282 5.096 1.194 11.288-.032 16.264-.365 1.48-.802 1.832-2.049 2.636-25.264 1.335-46.382-.182-70.452-9.248.02-6.343 1.209-12.71 2.799-18.83Z"/><path fill="#282223" d="M778.443 452.172c1.079-.023 2.2-.071 3.224.33 2.478.97 2.945 4.181 3.308 6.475 3.355 21.211 9.219 35.467 26.322 49.213 25.44 20.446 71.134 30.303 83.774 63.482 3.354 8.804 3.244 18.173-.718 26.746-4.607 9.97-13.217 17.006-23.432 20.73-15.107 5.509-30.114 1.883-44.199-4.692-3.69-1.472-7.278-3.582-10.829-5.373-10.533-5.313-21.14-10.504-32.786-12.907-15.478-3.194-33.028.341-47.831-5.394-9.696-3.756-16.722-12.348-20.809-21.663-7.694-17.535-4.156-36.715-6.484-55.166-.368-2.914-.816-5.856-1.655-8.675-2.007-6.748-8.195-18.583-5.586-25.366 3.128-3.09 19.998-5.982 24.931-7.668 17.378-5.941 34.913-16.736 52.77-20.072Z"/><path fill="#E27556" d="M783.463 485.925c.401.082.851.037 1.202.246.952.566 6.602 10.709 8.269 12.876 9.378 12.19 22.593 20.184 35.629 27.886a158.694 158.694 0 0 0-6.365 5.45c-17.424 15.919-28.705 35.659-29.756 59.502l-9.432-2.105c-.734-5.709-2.022-11.102-3.827-16.567-2.008-4.208-4.403-8.094-7.388-11.682-13.98-16.8-35.708-24.295-56.891-26.115.029-8.983-.098-17.819-1.093-26.755 6.42-1.41 12.899-2.407 19.295-3.975a238.947 238.947 0 0 0 50.357-18.761Z"/><path fill="#F59E5D" d="M834.12 530.298c10.328 1.895 29.502 15.721 38.355 22.489a282.14 282.14 0 0 0-6.055 4.44c-13.82 10.604-24.32 24.237-25.498 42.151-.266 4.042 1.42 8.776.762 12.524-.183 1.038-.217.994-1.146 1.592l-1.697-.432c-13.862-5.587-26.181-13.869-40.313-19.002-.017-1.499.005-2.993.134-4.487 2.174-25.211 16.699-43.546 35.458-59.275Z"/><path fill="#F59E5D" d="M877.305 557.897c.151.081.305.155.452.242 6.484 3.888 11.147 13.385 12.692 20.594a28.355 28.355 0 0 1-4.042 21.849c-6.049 9.001-16.049 12.89-26.296 14.845-2.562.213-5.709.642-8.214.015-1.651-.414-2.857-1.497-3.687-2.949-2.877-5.032-1.341-13.859.019-19.255 4.174-16.546 14.868-26.748 29.076-35.341Z"/><path fill="#E27556" d="M715.526 541.489c15.653 2.167 31.15 6.627 43.626 16.733 9.341 7.565 16.274 18.194 17.526 30.325-14.901-.651-36.373 1.763-48.095-9.486-9.552-9.167-12.556-24.92-13.057-37.572ZM777.26 458.399l.607.1c1.979 3.175 3.653 16.107 4.507 20.384-21.182 12.323-46.045 18.38-69.737 23.66-2.694-3.316-4.636-14.331-5.771-18.764 23.577-4.586 48.902-14.693 70.394-25.38Z"/></svg>