<?xml version="1.0" encoding="UTF-8"?>
<svg xmlns="http://www.w3.org/2000/svg" xmlns:xlink="http://www.w3.org/1999/xlink" width="2809" height="2928" viewBox="0 0 2809 2928">
<defs>
<clipPath id="clip-0">
<path clip-rule="nonzero" d="M 0 326 L 2809 326 L 2809 2519 L 0 2519 Z M 0 326 "/>
</clipPath>
<clipPath id="clip-1">
<path clip-rule="nonzero" d="M 1277.710938 418.980469 C 1294.820312 409.851562 1311.308594 396.210938 1326.929688 384.589844 L 1405.769531 326.660156 C 1442.929688 360.96875 1488.820312 387.988281 1530.320312 416.769531 C 1557.21875 443.871094 1588.480469 465.949219 1617.628906 490.550781 L 1710.71875 568.328125 L 1926.070312 727.691406 L 2084.160156 831.160156 C 2098.128906 840.308594 2112.039062 848.859375 2122.730469 861.921875 C 2100 871.890625 2074.859375 873.320312 2050.699219 877.808594 L 1910.761719 900.230469 C 1872.808594 905.769531 1838.628906 909.859375 1800.230469 909.96875 L 1801.609375 910.699219 C 1809.398438 915.050781 1810.320312 920.300781 1815.269531 927.199219 L 2015.800781 1176.269531 C 2088.96875 1258.25 2164.789062 1339.019531 2246.808594 1412.230469 L 2337.488281 1489.421875 C 2357.121094 1505.550781 2380.140625 1521.289062 2396.929688 1540.359375 L 2101.511719 1583.550781 L 2227.441406 1761.320312 C 2374.039062 1950.515625 2563.769531 2137.375 2750.769531 2285.183594 L 2789.738281 2314.152344 C 2795.980469 2318.394531 2802.769531 2321.917969 2808.769531 2326.476562 L 2208.929688 2446.839844 L 1819.859375 2500.558594 L 1616.441406 2518.65625 L 1191.558594 2516.929688 C 1170.46875 2513.042969 1148.78125 2513.933594 1127.558594 2513.03125 L 756.796875 2473.21875 L 449.453125 2420.027344 L 81.542969 2344.234375 L 0.3125 2330.554688 C 10.863281 2318.359375 26.789062 2308.621094 39.492188 2298.578125 L 277.992188 2094.753906 C 382.644531 1996.851562 482.378906 1889.480469 570.488281 1776.5 L 713.191406 1582 L 437.085938 1544.929688 C 428.550781 1543.488281 419.761719 1543 411.570312 1540.089844 L 410.75 1537 C 426.996094 1522.789062 445.9375 1510.25 463.238281 1497.230469 L 509.714844 1459.609375 C 600.644531 1382.011719 686.707031 1296.671875 766.324219 1207.550781 L 905.144531 1046.441406 C 934.320312 1010.101562 981.492188 939.980469 1014.710938 911.640625 L 1015.890625 910.648438 C 929.292969 908.140625 841.230469 892.640625 755.714844 878.980469 C 683.65625 867.460938 657.710938 873.460938 734.410156 824.371094 L 933.597656 693 C 1052.839844 607.761719 1165.730469 513.480469 1277.710938 418.980469 Z M 1277.710938 418.980469 "/>
</clipPath>
<clipPath id="clip-2">
<path clip-rule="nonzero" d="M 1277.710938 418.980469 C 1294.820312 409.851562 1311.308594 396.210938 1326.929688 384.589844 L 1405.769531 326.660156 C 1442.929688 360.96875 1488.820312 387.988281 1530.320312 416.769531 C 1557.21875 443.871094 1588.480469 465.949219 1617.628906 490.550781 L 1710.71875 568.328125 L 1926.070312 727.691406 L 2084.160156 831.160156 C 2098.128906 840.308594 2112.039062 848.859375 2122.730469 861.921875 C 2100 871.890625 2074.859375 873.320312 2050.699219 877.808594 L 1910.761719 900.230469 C 1872.808594 905.769531 1838.628906 909.859375 1800.230469 909.96875 L 1801.609375 910.699219 C 1809.398438 915.050781 1810.320312 920.300781 1815.269531 927.199219 L 2015.800781 1176.269531 C 2088.96875 1258.25 2164.789062 1339.019531 2246.808594 1412.230469 L 2337.488281 1489.421875 C 2357.121094 1505.550781 2380.140625 1521.289062 2396.929688 1540.359375 L 2101.511719 1583.550781 L 2227.441406 1761.320312 C 2374.039062 1950.515625 2563.769531 2137.375 2750.769531 2285.183594 L 2789.738281 2314.152344 C 2795.980469 2318.394531 2802.769531 2321.917969 2808.769531 2326.476562 L 2208.929688 2446.839844 L 1819.859375 2500.558594 L 1616.441406 2518.65625 L 1191.558594 2516.929688 C 1170.46875 2513.042969 1148.78125 2513.933594 1127.558594 2513.03125 L 756.796875 2473.21875 L 449.453125 2420.027344 L 81.542969 2344.234375 L 0.3125 2330.554688 C 10.863281 2318.359375 26.789062 2308.621094 39.492188 2298.578125 L 277.992188 2094.753906 C 382.644531 1996.851562 482.378906 1889.480469 570.488281 1776.5 L 713.191406 1582 L 437.085938 1544.929688 C 428.550781 1543.488281 419.761719 1543 411.570312 1540.089844 L 410.75 1537 C 426.996094 1522.789062 445.9375 1510.25 463.238281 1497.230469 L 509.714844 1459.609375 C 600.644531 1382.011719 686.707031 1296.671875 766.324219 1207.550781 L 905.144531 1046.441406 C 934.320312 1010.101562 981.492188 939.980469 1014.710938 911.640625 L 1015.890625 910.648438 C 929.292969 908.140625 841.230469 892.640625 755.714844 878.980469 C 683.65625 867.460938 657.710938 873.460938 734.410156 824.371094 L 933.597656 693 C 1052.839844 607.761719 1165.730469 513.480469 1277.710938 418.980469 Z M 1277.710938 418.980469 "/>
</clipPath>
<linearGradient id="linear-pattern-0" gradientUnits="userSpaceOnUse" x1="254.694566" y1="440.073955" x2="267.210709" y2="50.958903" gradientTransform="matrix(5.85938, 0, 0, 5.85938, -96, -15)">
<stop offset="0" stop-color="rgb(0.392151%, 30.195618%, 16.862488%)" stop-opacity="1"/>
<stop offset="0.03125" stop-color="rgb(0.389099%, 30.375671%, 16.88385%)" stop-opacity="1"/>
<stop offset="0.0390625" stop-color="rgb(0.384521%, 30.674744%, 16.918945%)" stop-opacity="1"/>
<stop offset="0.0395805" stop-color="rgb(0.38147%, 30.911255%, 16.947937%)" stop-opacity="1"/>
<stop offset="0.046875" stop-color="rgb(0.379944%, 31.030273%, 16.963196%)" stop-opacity="1"/>
<stop offset="0.0546875" stop-color="rgb(0.378418%, 31.147766%, 16.976929%)" stop-opacity="1"/>
<stop offset="0.0625" stop-color="rgb(0.375366%, 31.384277%, 17.00592%)" stop-opacity="1"/>
<stop offset="0.0703125" stop-color="rgb(0.372314%, 31.620789%, 17.034912%)" stop-opacity="1"/>
<stop offset="0.078125" stop-color="rgb(0.369263%, 31.855774%, 17.063904%)" stop-opacity="1"/>
<stop offset="0.0859375" stop-color="rgb(0.366211%, 32.092285%, 17.092896%)" stop-opacity="1"/>
<stop offset="0.09375" stop-color="rgb(0.363159%, 32.328796%, 17.120361%)" stop-opacity="1"/>
<stop offset="0.101562" stop-color="rgb(0.358582%, 32.565308%, 17.149353%)" stop-opacity="1"/>
<stop offset="0.109375" stop-color="rgb(0.35553%, 32.801819%, 17.178345%)" stop-opacity="1"/>
<stop offset="0.117187" stop-color="rgb(0.352478%, 33.03833%, 17.207336%)" stop-opacity="1"/>
<stop offset="0.125" stop-color="rgb(0.349426%, 33.274841%, 17.236328%)" stop-opacity="1"/>
<stop offset="0.132812" stop-color="rgb(0.346375%, 33.511353%, 17.26532%)" stop-opacity="1"/>
<stop offset="0.140625" stop-color="rgb(0.343323%, 33.747864%, 17.292786%)" stop-opacity="1"/>
<stop offset="0.148438" stop-color="rgb(0.340271%, 33.984375%, 17.321777%)" stop-opacity="1"/>
<stop offset="0.15625" stop-color="rgb(0.337219%, 34.220886%, 17.350769%)" stop-opacity="1"/>
<stop offset="0.164062" stop-color="rgb(0.334167%, 34.455872%, 17.379761%)" stop-opacity="1"/>
<stop offset="0.171875" stop-color="rgb(0.331116%, 34.692383%, 17.408752%)" stop-opacity="1"/>
<stop offset="0.179687" stop-color="rgb(0.328064%, 34.928894%, 17.437744%)" stop-opacity="1"/>
<stop offset="0.1875" stop-color="rgb(0.323486%, 35.165405%, 17.46521%)" stop-opacity="1"/>
<stop offset="0.195312" stop-color="rgb(0.320435%, 35.401917%, 17.494202%)" stop-opacity="1"/>
<stop offset="0.203125" stop-color="rgb(0.317383%, 35.638428%, 17.523193%)" stop-opacity="1"/>
<stop offset="0.210938" stop-color="rgb(0.314331%, 35.874939%, 17.552185%)" stop-opacity="1"/>
<stop offset="0.21875" stop-color="rgb(0.311279%, 36.11145%, 17.581177%)" stop-opacity="1"/>
<stop offset="0.226562" stop-color="rgb(0.308228%, 36.347961%, 17.610168%)" stop-opacity="1"/>
<stop offset="0.234375" stop-color="rgb(0.305176%, 36.584473%, 17.637634%)" stop-opacity="1"/>
<stop offset="0.242188" stop-color="rgb(0.302124%, 36.820984%, 17.666626%)" stop-opacity="1"/>
<stop offset="0.25" stop-color="rgb(0.299072%, 37.055969%, 17.695618%)" stop-opacity="1"/>
<stop offset="0.257812" stop-color="rgb(0.296021%, 37.29248%, 17.724609%)" stop-opacity="1"/>
<stop offset="0.265625" stop-color="rgb(0.291443%, 37.528992%, 17.753601%)" stop-opacity="1"/>
<stop offset="0.273438" stop-color="rgb(0.288391%, 37.765503%, 17.782593%)" stop-opacity="1"/>
<stop offset="0.28125" stop-color="rgb(0.285339%, 38.002014%, 17.811584%)" stop-opacity="1"/>
<stop offset="0.289062" stop-color="rgb(0.282288%, 38.238525%, 17.83905%)" stop-opacity="1"/>
<stop offset="0.296875" stop-color="rgb(0.279236%, 38.475037%, 17.868042%)" stop-opacity="1"/>
<stop offset="0.304688" stop-color="rgb(0.276184%, 38.711548%, 17.897034%)" stop-opacity="1"/>
<stop offset="0.3125" stop-color="rgb(0.273132%, 38.948059%, 17.926025%)" stop-opacity="1"/>
<stop offset="0.320312" stop-color="rgb(0.270081%, 39.18457%, 17.955017%)" stop-opacity="1"/>
<stop offset="0.328125" stop-color="rgb(0.267029%, 39.421082%, 17.984009%)" stop-opacity="1"/>
<stop offset="0.335937" stop-color="rgb(0.263977%, 39.656067%, 18.011475%)" stop-opacity="1"/>
<stop offset="0.34375" stop-color="rgb(0.260925%, 39.892578%, 18.040466%)" stop-opacity="1"/>
<stop offset="0.351562" stop-color="rgb(0.256348%, 40.129089%, 18.069458%)" stop-opacity="1"/>
<stop offset="0.359375" stop-color="rgb(0.253296%, 40.365601%, 18.09845%)" stop-opacity="1"/>
<stop offset="0.367188" stop-color="rgb(0.250244%, 40.602112%, 18.127441%)" stop-opacity="1"/>
<stop offset="0.375" stop-color="rgb(0.247192%, 40.838623%, 18.156433%)" stop-opacity="1"/>
<stop offset="0.382812" stop-color="rgb(0.244141%, 41.075134%, 18.183899%)" stop-opacity="1"/>
<stop offset="0.390625" stop-color="rgb(0.241089%, 41.311646%, 18.212891%)" stop-opacity="1"/>
<stop offset="0.398438" stop-color="rgb(0.238037%, 41.548157%, 18.241882%)" stop-opacity="1"/>
<stop offset="0.40625" stop-color="rgb(0.234985%, 41.784668%, 18.270874%)" stop-opacity="1"/>
<stop offset="0.414063" stop-color="rgb(0.231934%, 42.019653%, 18.299866%)" stop-opacity="1"/>
<stop offset="0.421875" stop-color="rgb(0.228882%, 42.256165%, 18.328857%)" stop-opacity="1"/>
<stop offset="0.429688" stop-color="rgb(0.22583%, 42.492676%, 18.357849%)" stop-opacity="1"/>
<stop offset="0.4375" stop-color="rgb(0.221252%, 42.729187%, 18.385315%)" stop-opacity="1"/>
<stop offset="0.445312" stop-color="rgb(0.218201%, 42.965698%, 18.414307%)" stop-opacity="1"/>
<stop offset="0.453125" stop-color="rgb(0.215149%, 43.202209%, 18.443298%)" stop-opacity="1"/>
<stop offset="0.460938" stop-color="rgb(0.212097%, 43.438721%, 18.47229%)" stop-opacity="1"/>
<stop offset="0.46875" stop-color="rgb(0.209045%, 43.675232%, 18.501282%)" stop-opacity="1"/>
<stop offset="0.476562" stop-color="rgb(0.205994%, 43.911743%, 18.530273%)" stop-opacity="1"/>
<stop offset="0.484375" stop-color="rgb(0.202942%, 44.148254%, 18.557739%)" stop-opacity="1"/>
<stop offset="0.492187" stop-color="rgb(0.19989%, 44.384766%, 18.586731%)" stop-opacity="1"/>
<stop offset="0.5" stop-color="rgb(0.196838%, 44.619751%, 18.615723%)" stop-opacity="1"/>
<stop offset="0.507812" stop-color="rgb(0.193787%, 44.856262%, 18.644714%)" stop-opacity="1"/>
<stop offset="0.515625" stop-color="rgb(0.190735%, 45.092773%, 18.673706%)" stop-opacity="1"/>
<stop offset="0.523437" stop-color="rgb(0.186157%, 45.329285%, 18.702698%)" stop-opacity="1"/>
<stop offset="0.53125" stop-color="rgb(0.183105%, 45.565796%, 18.730164%)" stop-opacity="1"/>
<stop offset="0.539062" stop-color="rgb(0.180054%, 45.802307%, 18.759155%)" stop-opacity="1"/>
<stop offset="0.546875" stop-color="rgb(0.177002%, 46.038818%, 18.788147%)" stop-opacity="1"/>
<stop offset="0.554687" stop-color="rgb(0.17395%, 46.27533%, 18.817139%)" stop-opacity="1"/>
<stop offset="0.5625" stop-color="rgb(0.170898%, 46.511841%, 18.84613%)" stop-opacity="1"/>
<stop offset="0.570312" stop-color="rgb(0.167847%, 46.748352%, 18.875122%)" stop-opacity="1"/>
<stop offset="0.578125" stop-color="rgb(0.164795%, 46.984863%, 18.902588%)" stop-opacity="1"/>
<stop offset="0.585937" stop-color="rgb(0.161743%, 47.219849%, 18.93158%)" stop-opacity="1"/>
<stop offset="0.59375" stop-color="rgb(0.158691%, 47.45636%, 18.960571%)" stop-opacity="1"/>
<stop offset="0.601562" stop-color="rgb(0.154114%, 47.692871%, 18.989563%)" stop-opacity="1"/>
<stop offset="0.609375" stop-color="rgb(0.151062%, 47.929382%, 19.018555%)" stop-opacity="1"/>
<stop offset="0.617187" stop-color="rgb(0.14801%, 48.165894%, 19.047546%)" stop-opacity="1"/>
<stop offset="0.625" stop-color="rgb(0.144958%, 48.402405%, 19.076538%)" stop-opacity="1"/>
<stop offset="0.632812" stop-color="rgb(0.141907%, 48.638916%, 19.104004%)" stop-opacity="1"/>
<stop offset="0.640625" stop-color="rgb(0.138855%, 48.875427%, 19.132996%)" stop-opacity="1"/>
<stop offset="0.648437" stop-color="rgb(0.135803%, 49.111938%, 19.161987%)" stop-opacity="1"/>
<stop offset="0.65625" stop-color="rgb(0.132751%, 49.34845%, 19.190979%)" stop-opacity="1"/>
<stop offset="0.664062" stop-color="rgb(0.1297%, 49.583435%, 19.219971%)" stop-opacity="1"/>
<stop offset="0.671875" stop-color="rgb(0.126648%, 49.819946%, 19.248962%)" stop-opacity="1"/>
<stop offset="0.679687" stop-color="rgb(0.123596%, 50.056458%, 19.276428%)" stop-opacity="1"/>
<stop offset="0.6875" stop-color="rgb(0.119019%, 50.292969%, 19.30542%)" stop-opacity="1"/>
<stop offset="0.695312" stop-color="rgb(0.115967%, 50.52948%, 19.334412%)" stop-opacity="1"/>
<stop offset="0.703125" stop-color="rgb(0.112915%, 50.765991%, 19.363403%)" stop-opacity="1"/>
<stop offset="0.710937" stop-color="rgb(0.109863%, 51.002502%, 19.392395%)" stop-opacity="1"/>
<stop offset="0.71875" stop-color="rgb(0.106812%, 51.239014%, 19.421387%)" stop-opacity="1"/>
<stop offset="0.726562" stop-color="rgb(0.10376%, 51.475525%, 19.448853%)" stop-opacity="1"/>
<stop offset="0.734375" stop-color="rgb(0.100708%, 51.712036%, 19.477844%)" stop-opacity="1"/>
<stop offset="0.742188" stop-color="rgb(0.0976562%, 51.948547%, 19.506836%)" stop-opacity="1"/>
<stop offset="0.75" stop-color="rgb(0.0946045%, 52.183533%, 19.535828%)" stop-opacity="1"/>
<stop offset="0.757812" stop-color="rgb(0.0915527%, 52.420044%, 19.564819%)" stop-opacity="1"/>
<stop offset="0.765625" stop-color="rgb(0.088501%, 52.656555%, 19.593811%)" stop-opacity="1"/>
<stop offset="0.773438" stop-color="rgb(0.0839233%, 52.893066%, 19.621277%)" stop-opacity="1"/>
<stop offset="0.78125" stop-color="rgb(0.0808716%, 53.129578%, 19.650269%)" stop-opacity="1"/>
<stop offset="0.789063" stop-color="rgb(0.0778198%, 53.366089%, 19.67926%)" stop-opacity="1"/>
<stop offset="0.796875" stop-color="rgb(0.0747681%, 53.6026%, 19.708252%)" stop-opacity="1"/>
<stop offset="0.804688" stop-color="rgb(0.0717163%, 53.839111%, 19.737244%)" stop-opacity="1"/>
<stop offset="0.8125" stop-color="rgb(0.0686646%, 54.075623%, 19.766235%)" stop-opacity="1"/>
<stop offset="0.820313" stop-color="rgb(0.0656128%, 54.312134%, 19.795227%)" stop-opacity="1"/>
<stop offset="0.828125" stop-color="rgb(0.062561%, 54.548645%, 19.822693%)" stop-opacity="1"/>
<stop offset="0.835938" stop-color="rgb(0.0595093%, 54.78363%, 19.851685%)" stop-opacity="1"/>
<stop offset="0.84375" stop-color="rgb(0.0564575%, 55.020142%, 19.880676%)" stop-opacity="1"/>
<stop offset="0.851563" stop-color="rgb(0.0518799%, 55.256653%, 19.909668%)" stop-opacity="1"/>
<stop offset="0.859375" stop-color="rgb(0.0488281%, 55.493164%, 19.93866%)" stop-opacity="1"/>
<stop offset="0.867188" stop-color="rgb(0.0457764%, 55.729675%, 19.967651%)" stop-opacity="1"/>
<stop offset="0.875" stop-color="rgb(0.0427246%, 55.966187%, 19.995117%)" stop-opacity="1"/>
<stop offset="0.882813" stop-color="rgb(0.0396729%, 56.202698%, 20.024109%)" stop-opacity="1"/>
<stop offset="0.890625" stop-color="rgb(0.0366211%, 56.439209%, 20.053101%)" stop-opacity="1"/>
<stop offset="0.898438" stop-color="rgb(0.0335693%, 56.67572%, 20.082092%)" stop-opacity="1"/>
<stop offset="0.90625" stop-color="rgb(0.0305176%, 56.912231%, 20.111084%)" stop-opacity="1"/>
<stop offset="0.914063" stop-color="rgb(0.0274658%, 57.147217%, 20.140076%)" stop-opacity="1"/>
<stop offset="0.921875" stop-color="rgb(0.0244141%, 57.383728%, 20.167542%)" stop-opacity="1"/>
<stop offset="0.929688" stop-color="rgb(0.0213623%, 57.620239%, 20.196533%)" stop-opacity="1"/>
<stop offset="0.9375" stop-color="rgb(0.0167847%, 57.85675%, 20.225525%)" stop-opacity="1"/>
<stop offset="0.945313" stop-color="rgb(0.0137329%, 58.093262%, 20.254517%)" stop-opacity="1"/>
<stop offset="0.953125" stop-color="rgb(0.0106812%, 58.329773%, 20.283508%)" stop-opacity="1"/>
<stop offset="0.960419" stop-color="rgb(0.00762939%, 58.566284%, 20.3125%)" stop-opacity="1"/>
<stop offset="0.960938" stop-color="rgb(0.00610352%, 58.685303%, 20.326233%)" stop-opacity="1"/>
<stop offset="0.96875" stop-color="rgb(0.00457764%, 58.802795%, 20.339966%)" stop-opacity="1"/>
<stop offset="1" stop-color="rgb(0.00152588%, 59.068298%, 20.373535%)" stop-opacity="1"/>
</linearGradient>
</defs>
<path fill-rule="nonzero" fill="rgb(100%, 88.28125%, 2.745056%)" fill-opacity="1" d="M 1277.710938 418.980469 C 1277.910156 385.019531 1291.871094 296.761719 1299.480469 258.410156 C 1279.929688 240.039062 1191.261719 177.101562 1193.160156 155.648438 C 1206.710938 132.230469 1237.359375 132.980469 1261.019531 132.410156 L 1302.191406 130.351562 C 1370.628906 123.730469 1361.769531 33.109375 1408.109375 0.109375 C 1443.429688 31.089844 1437.300781 116.308594 1492.910156 124.808594 L 1567.289062 134.441406 C 1589.488281 138.160156 1605.558594 141.769531 1620.539062 158.808594 C 1601.570312 188.011719 1506.488281 254.898438 1502.308594 274.621094 C 1501.910156 276.5 1511.261719 305.558594 1512.308594 310.070312 C 1520.441406 345.21875 1528.628906 380.640625 1530.320312 416.769531 C 1488.820312 387.988281 1442.929688 360.96875 1405.769531 326.660156 L 1326.929688 384.589844 C 1311.308594 396.210938 1294.820312 409.851562 1277.710938 418.980469 Z M 1277.710938 418.980469 "/>
<path fill-rule="nonzero" fill="rgb(31.762695%, 10.594177%, 3.921509%)" fill-opacity="1" d="M 1192.488281 2515.195312 L 1616.441406 2518.597656 L 1615.910156 2825.15625 C 1616.25 2861.347656 1616.78125 2888.113281 1582.488281 2910.777344 L 1580.199219 2912.171875 C 1572.621094 2916.976562 1564.199219 2921.050781 1555.371094 2922.964844 L 1553.410156 2923.363281 C 1523.640625 2929.667969 1487.589844 2926.210938 1457.210938 2926.234375 L 1291.210938 2926.714844 C 1214.800781 2927.0625 1192.070312 2893.351562 1192.378906 2822.214844 Z M 1192.488281 2515.195312 "/>
<g clip-path="url(#clip-0)">
<g clip-path="url(#clip-1)">
<g clip-path="url(#clip-2)">
<path fill-rule="nonzero" fill="url(#linear-pattern-0)" d="M 0.3125 326.660156 L 0.3125 2518.65625 L 2808.769531 2518.65625 L 2808.769531 326.660156 Z M 0.3125 326.660156 "/>
</g>
</g>
</g>
<path fill-rule="nonzero" fill="rgb(100%, 88.28125%, 2.745056%)" fill-opacity="1" d="M 1399.101562 1397.710938 C 1403.859375 1395.398438 1420.839844 1397.308594 1426.769531 1398.070312 L 1429.640625 1398.460938 C 1580.390625 1417.621094 1577.21875 1638.511719 1426.339844 1665.199219 C 1249.039062 1683.140625 1220.851562 1413.488281 1399.101562 1397.710938 Z M 1399.101562 1397.710938 "/>
<path fill-rule="nonzero" fill="rgb(98.826599%, 12.939453%, 19.213867%)" fill-opacity="1" d="M 1351.921875 751.679688 C 1468.070312 745.640625 1553.109375 872.261719 1477.390625 972.53125 C 1452.679688 1005.261719 1421.71875 1022.640625 1381.519531 1028.21875 C 1179.011719 1030.789062 1169.539062 771.730469 1351.921875 751.679688 Z M 1351.921875 751.679688 "/>
<path fill-rule="nonzero" fill="rgb(98.826599%, 12.939453%, 19.213867%)" fill-opacity="1" d="M 880.496094 1891.371094 C 891.804688 1890.671875 904.957031 1891.109375 915.902344 1894.21875 L 918.40625 1894.96875 C 1069.011719 1938.492188 1053.289062 2161.464844 888.738281 2177.347656 C 719.496094 2185.347656 684.089844 1907.339844 880.496094 1891.371094 Z M 880.496094 1891.371094 "/>
<path fill-rule="nonzero" fill="rgb(15.696716%, 91.014099%, 99.21875%)" fill-opacity="1" d="M 1992.21875 1932.4375 C 2177.820312 1936.984375 2184.390625 2206.996094 1993.25 2217.683594 C 1810.71875 2217.199219 1794.46875 1940.371094 1992.21875 1932.4375 Z M 1992.21875 1932.4375 "/>
</svg>
