<?xml version="1.0" encoding="utf-8"?><svg version="1.1" id="Layer_1" xmlns="http://www.w3.org/2000/svg" xmlns:xlink="http://www.w3.org/1999/xlink" x="0px" y="0px" viewBox="0 0 111.11 122.88" style="enable-background:new 0 0 111.11 122.88" xml:space="preserve"><g><path d="M76.31,77.1V25.9c0-0.53,0.43-0.96,0.96-0.96h0.02h32.86c0.53,0,0.96,0.43,0.96,0.96v0.02v50.71v14.27v0.01v0.2 c0,0.29-0.13,0.55-0.33,0.73l-10.1,10.03c-0.14,0.13-0.3,0.22-0.47,0.26l-13.34,13.25c-7.38,7.33-14.97,8.66-20.95,6.64 c-2.39-0.8-4.51-2.14-6.27-3.84c-1.75-1.7-3.13-3.76-4.03-6.03c-2.22-5.59-1.52-12.4,3.76-17.92l0.03-0.03L76.31,77.1L76.31,77.1z M21.89,52.16V0.96c0-0.53,0.43-0.96,0.96-0.96h0.02h32.86c0.53,0,0.96,0.43,0.96,0.96v0.02v64.98c0,0.29-0.13,0.55-0.33,0.73 L32.44,90.44c-7.38,7.33-14.97,8.66-20.95,6.65c-2.39-0.8-4.51-2.14-6.27-3.84c-1.75-1.7-3.13-3.76-4.03-6.03 c-2.22-5.59-1.52-12.4,3.76-17.92l0.03-0.03L21.89,52.16L21.89,52.16z M54.77,12.58H23.8v39.97h0c0,0.24-0.09,0.48-0.27,0.67 L6.33,70.6l0,0C1.63,75.53,1,81.56,2.96,86.51c0.8,2.01,2.03,3.85,3.59,5.37c1.55,1.51,3.44,2.69,5.54,3.4 c5.36,1.8,12.22,0.54,19-6.19l12.93-12.84c-1.43-1.31-2.61-2.9-3.44-4.69c-0.9-1.92-1.4-4.05-1.4-6.29c0-4.11,1.67-7.83,4.36-10.52 l0,0l0,0l0,0c2.7-2.69,6.42-4.36,10.52-4.36c0.17,0,0.39,0.01,0.65,0.02h0l0.05,0V12.58L54.77,12.58z M54.32,65.48V52.3l-0.26,0 c-3.58,0-6.83,1.45-9.17,3.8l0,0c-2.34,2.34-3.8,5.59-3.8,9.17c0,1.97,0.43,3.83,1.21,5.49c0.68,1.46,1.64,2.78,2.8,3.89 L54.32,65.48L54.32,65.48z M98.5,101.13c-1.26-1.24-2.3-2.7-3.06-4.32c-0.9-1.92-1.4-4.05-1.4-6.29c0-4.11,1.67-7.83,4.36-10.52 l0,0l0,0l0,0c2.7-2.69,6.42-4.36,10.52-4.36l0.26,0V37.52H78.23v39.97h0c0,0.24-0.09,0.48-0.27,0.67L60.76,95.55l0,0 c-4.71,4.92-5.34,10.96-3.37,15.91c0.8,2.01,2.03,3.85,3.59,5.37c1.55,1.51,3.44,2.69,5.54,3.4c5.36,1.8,12.22,0.54,19-6.19 L98.5,101.13L98.5,101.13z M109.19,77.54l-0.26,0c-3.58,0-6.83,1.45-9.17,3.8l0,0c-2.35,2.34-3.8,5.59-3.8,9.17 c0,1.97,0.43,3.83,1.21,5.49c0.66,1.42,1.58,2.7,2.69,3.78l9.33-9.27V77.54L109.19,77.54z"/></g></svg>